<?xml version="1.0" standalone="no"?>
<!DOCTYPE svg PUBLIC "-//W3C//DTD SVG 20010904//EN"
 "http://www.w3.org/TR/2001/REC-SVG-20010904/DTD/svg10.dtd">
<svg version="1.0" xmlns="http://www.w3.org/2000/svg"
 width="800.000000pt" height="800.000000pt" viewBox="0 0 800.000000 800.000000"
 preserveAspectRatio="xMidYMid meet">
<metadata>
Created by potrace 1.14, written by Peter Selinger 2001-2017
</metadata>
<g transform="translate(0.000000,800.000000) scale(0.100000,-0.100000)"
fill="#000000" stroke="none">
<path d="M0 7274 l0 -727 113 7 c405 25 791 68 1480 165 148 21 163 27 328
133 58 38 72 38 83 1 6 -18 0 -27 -35 -50 -23 -15 -37 -29 -31 -31 6 -2 82 6
169 17 176 23 415 46 571 56 l102 7 0 42 c0 48 9 86 20 86 5 0 6 -29 3 -65
l-5 -65 239 0 c206 -1 319 -7 398 -24 11 -3 22 -5 26 -5 3 -1 6 -19 7 -42 3
-37 0 -41 -27 -52 -27 -10 -30 -16 -35 -66 -3 -31 -8 -177 -11 -326 -9 -467
-17 -756 -24 -870 l-6 -110 -120 0 c-103 0 -125 -3 -150 -19 -17 -11 -59 -25
-95 -32 -451 -84 -463 -87 -488 -115 -10 -10 -34 -67 -52 -125 -37 -118 -38
-96 19 -304 45 -162 40 -157 158 -164 201 -12 295 -24 312 -40 13 -12 29 -15
64 -10 31 5 47 3 47 -4 0 -6 -4 -13 -9 -16 -24 -15 -221 -46 -291 -46 -93 0
-266 -32 -365 -66 -86 -31 -225 -60 -348 -74 -50 -6 -137 -17 -192 -25 -130
-18 -185 -22 -185 -13 0 4 11 10 25 14 14 3 25 11 25 16 0 6 -6 8 -14 5 -19
-8 -36 13 -35 43 0 23 1 23 9 5 7 -17 9 -17 9 -2 1 9 7 17 14 17 6 0 13 10 13
23 3 34 8 51 19 59 6 5 5 8 -2 8 -7 0 -13 7 -13 16 0 11 6 14 20 9 20 -6 25 5
21 49 -1 16 1 17 14 6 16 -13 19 -6 16 33 -1 9 3 17 8 17 6 0 11 -4 11 -10 0
-5 7 -10 15 -10 18 0 20 20 3 20 -8 1 -6 6 5 14 18 14 24 32 7 21 -13 -8 -13
11 1 37 8 15 8 22 -1 28 -9 6 -9 9 1 12 9 3 14 24 14 69 0 40 5 67 13 72 6 4
12 17 12 29 0 11 8 27 18 34 16 13 16 14 -2 7 -16 -5 -18 -3 -13 11 4 10 7 27
7 39 0 12 5 29 10 37 9 13 11 13 20 0 7 -11 10 -6 10 23 0 25 5 37 14 37 14 0
29 34 27 61 -1 9 6 20 16 23 17 7 17 8 -2 23 -20 15 -20 15 1 9 16 -5 26 0 38
20 10 14 15 31 13 39 -9 22 15 37 29 17 11 -14 11 -13 7 10 -3 14 0 35 6 47 8
14 8 21 1 21 -5 0 -10 5 -10 11 0 5 5 7 12 3 7 -4 8 -3 4 5 -10 15 11 78 28
84 8 3 12 17 11 31 -2 14 1 26 7 26 6 0 8 6 5 14 -3 8 1 20 9 27 8 7 13 18 10
25 -3 8 0 11 10 7 7 -3 14 -1 14 5 0 5 -7 12 -15 16 -8 3 -15 16 -14 28 0 22
1 22 9 3 7 -19 8 -19 15 -1 5 11 3 21 -4 26 -10 5 -9 8 1 13 10 3 14 19 14 46
-1 32 3 41 16 41 14 0 16 6 11 30 -4 25 -2 30 13 31 11 0 13 3 7 6 -10 3 -10
10 -2 25 6 11 9 31 6 44 -2 13 0 21 4 18 5 -3 9 -1 9 5 0 5 -5 13 -10 16 -6 4
-1 15 12 26 15 13 19 22 11 25 -13 6 11 74 31 86 7 5 4 8 -8 8 -12 0 -16 5
-12 16 3 9 6 20 6 25 0 5 7 9 15 9 9 0 12 6 9 15 -4 8 -2 21 4 28 5 6 8 26 6
44 -2 20 1 33 10 36 11 5 26 70 31 137 1 8 7 28 13 43 7 16 12 30 12 33 0 3
13 17 29 33 16 16 29 39 29 52 0 47 25 119 41 120 11 0 12 2 3 6 -20 8 -14 23
10 23 12 0 19 2 17 5 -16 16 -467 -30 -1224 -125 -590 -73 -791 -94 -1090
-113 l-190 -12 -3 -212 c-2 -198 -1 -212 16 -217 10 -4 24 -23 30 -44 6 -22
10 -27 8 -12 -2 21 2 26 20 25 12 0 26 -3 30 -7 4 -5 15 -8 25 -8 10 0 19 -7
21 -16 3 -14 7 -13 31 6 22 17 27 19 27 6 0 -9 -4 -16 -10 -16 -5 0 -10 -7
-10 -15 0 -13 4 -13 26 2 26 17 27 17 20 -7 -6 -23 -6 -23 7 -7 19 23 27 22
28 -5 0 -13 3 -17 6 -10 2 6 9 12 15 12 6 0 8 -6 5 -14 -4 -10 0 -14 13 -13
10 1 18 4 17 7 -1 3 3 6 8 8 6 1 12 -7 13 -19 3 -16 0 -20 -12 -16 -9 4 -16 2
-16 -3 0 -5 12 -10 28 -12 19 -2 26 -8 24 -20 -2 -11 3 -18 13 -18 9 0 15 9
16 23 1 16 2 18 6 5 2 -10 11 -18 19 -18 13 0 19 -32 16 -87 0 -13 3 -23 9
-23 5 0 9 -5 9 -11 0 -11 24 -39 34 -39 3 0 6 7 6 15 0 8 5 15 10 15 6 0 10
-9 10 -20 0 -11 -4 -20 -10 -20 -5 0 -10 -7 -10 -16 0 -10 6 -13 19 -9 15 5
20 -2 30 -39 6 -25 11 -54 11 -65 0 -12 5 -21 10 -21 7 0 7 -7 0 -21 -6 -11
-9 -25 -6 -32 2 -7 8 -2 11 11 10 32 25 27 25 -8 0 -16 5 -30 11 -30 5 0 8 4
5 9 -4 5 -3 16 0 24 5 13 9 12 26 -5 17 -17 18 -21 4 -31 -19 -15 -11 -58 10
-50 9 3 14 -1 14 -12 0 -11 5 -15 14 -12 8 3 20 -1 28 -10 11 -14 10 -15 -10
-9 -13 5 -22 3 -22 -3 0 -6 7 -11 15 -11 14 0 19 -14 18 -47 -1 -7 9 -13 21
-14 20 0 20 -1 1 -9 -20 -8 -20 -8 -1 -16 19 -7 19 -8 0 -15 -17 -7 -17 -8 4
-8 26 -1 30 -18 5 -24 -16 -4 -16 -5 1 -6 16 -1 17 -3 5 -18 -13 -17 -12 -17
5 -3 16 13 20 12 32 -5 8 -10 14 -13 14 -7 0 7 4 12 10 12 11 0 9 -28 -4 -49
-6 -9 -3 -17 8 -23 10 -6 16 -22 16 -44 0 -27 4 -34 16 -32 11 2 21 -8 28 -30
6 -18 15 -30 19 -26 4 4 7 -2 7 -14 0 -12 6 -22 13 -22 8 0 23 -10 35 -23 23
-24 30 -43 12 -32 -5 3 -10 0 -10 -7 0 -7 9 -19 20 -26 13 -8 20 -23 20 -42 0
-17 5 -30 10 -30 6 0 10 5 10 10 0 6 5 10 11 10 8 0 8 -4 0 -14 -10 -11 -10
-20 0 -38 12 -22 12 -22 19 -3 5 13 8 4 8 -27 0 -30 6 -54 16 -64 9 -8 16 -26
16 -40 0 -19 5 -24 26 -24 22 0 24 3 18 22 -6 21 -6 22 12 4 17 -18 17 -19
-11 -44 -17 -14 -22 -23 -12 -19 9 4 23 10 31 13 8 3 14 0 13 -8 -1 -33 4 -48
17 -48 8 0 22 -7 31 -16 8 -9 22 -13 30 -10 9 3 12 0 8 -10 -3 -8 -12 -13 -19
-10 -48 20 -47 20 -28 -2 10 -12 24 -22 32 -22 7 0 15 -7 19 -16 4 -11 13 -14
32 -9 19 4 22 3 11 -5 -10 -6 -11 -10 -2 -10 6 0 12 -7 12 -15 0 -9 6 -18 14
-21 8 -3 12 -12 9 -20 -3 -8 0 -21 7 -29 7 -8 9 -22 5 -32 -4 -10 -9 -26 -10
-36 -2 -22 -25 -39 -42 -32 -6 2 -13 0 -15 -4 -2 -4 -50 -17 -108 -29 -58 -11
-143 -29 -190 -40 -47 -11 -188 -43 -315 -72 -126 -29 -286 -72 -355 -97 -69
-25 -164 -59 -212 -77 l-88 -31 0 -497 0 -496 83 -7 c45 -3 96 -2 112 2 17 5
50 8 75 6 25 -1 59 -3 77 -4 26 -2 32 -7 35 -29 6 -37 0 -50 -29 -61 -19 -7
-23 -14 -17 -32 3 -12 7 -23 8 -24 1 -1 31 -7 66 -13 36 -7 77 -14 93 -17 20
-4 27 -1 27 10 0 14 4 14 35 1 19 -8 35 -11 34 -7 -1 5 2 18 6 30 6 17 15 21
50 21 24 0 53 3 64 7 28 8 27 -8 -2 -29 -21 -16 -21 -17 -1 -13 17 4 20 0 16
-19 -2 -13 -9 -21 -16 -18 -16 6 -31 -13 -40 -48 -8 -36 0 -35 19 2 10 19 20
27 30 24 10 -4 15 0 15 10 0 9 13 30 29 47 23 23 35 29 52 24 16 -5 20 -3 16
6 -2 8 -10 13 -16 11 -7 -1 -10 2 -6 8 3 6 11 7 17 4 6 -4 15 0 20 7 8 11 9
11 5 -2 -3 -9 -8 -37 -12 -61 -4 -29 -12 -45 -21 -45 -9 0 -13 6 -10 14 3 8 1
11 -4 8 -15 -9 -12 -37 3 -32 14 5 67 -20 67 -32 0 -5 -6 -14 -14 -20 -12 -10
-13 -9 -9 7 2 11 0 23 -6 26 -10 6 -13 0 -10 -20 1 -8 -22 -24 -34 -24 -5 0
-6 4 -3 8 2 4 1 14 -5 22 -6 11 -9 9 -9 -11 0 -15 7 -29 16 -33 22 -8 26 -8
19 4 -3 6 -1 10 4 10 16 0 13 -12 -9 -40 -10 -14 -22 -21 -27 -16 -4 5 -2 11
4 13 7 3 13 9 13 14 0 11 -23 7 -32 -5 -4 -6 -4 10 -2 35 4 32 3 40 -5 29 -6
-8 -8 -23 -5 -34 4 -12 2 -16 -5 -12 -15 10 -14 1 4 -34 9 -18 21 -27 29 -24
7 3 16 -2 20 -11 4 -11 1 -16 -12 -14 -9 1 -30 -3 -45 -9 -16 -7 -33 -12 -38
-12 -6 0 -7 -4 -4 -10 3 -5 1 -10 -4 -10 -6 0 -11 5 -11 10 0 6 -6 10 -14 10
-22 0 -28 17 -15 38 9 14 8 26 -4 53 -8 19 -18 41 -20 49 -3 8 -6 2 -7 -15 -1
-16 -4 -54 -5 -82 -2 -29 1 -53 6 -53 21 0 7 -31 -21 -45 -16 -9 -30 -19 -30
-23 0 -4 -17 -6 -38 -4 -29 3 -42 -1 -57 -18 -19 -22 -19 -22 0 -36 10 -8 29
-14 41 -14 13 0 26 -5 30 -11 4 -7 20 -9 40 -6 26 5 34 2 39 -13 4 -12 12 -17
23 -14 14 5 15 4 2 -5 -10 -7 -19 -6 -31 5 -8 7 -21 14 -27 14 -13 0 -16 -26
-5 -33 5 -2 2 -2 -5 -1 -7 2 -28 -5 -48 -15 -28 -15 -31 -20 -17 -25 10 -4 19
-2 21 3 2 6 14 11 27 11 18 0 22 -4 18 -20 -7 -25 -20 -26 -26 -2 -3 10 -5 6
-6 -10 0 -16 -5 -28 -11 -28 -5 0 -10 4 -10 8 0 4 -9 8 -20 8 -11 0 -20 -3
-20 -7 0 -4 -7 -10 -16 -13 -8 -3 -13 -2 -10 3 4 5 -3 7 -14 4 -11 -3 -20 0
-20 6 0 6 -5 11 -11 11 -6 0 -9 -7 -5 -15 3 -9 0 -15 -8 -15 -8 0 -16 -6 -19
-12 -6 -20 -37 10 -37 36 0 20 -5 22 -54 22 -44 -1 -52 -3 -43 -14 9 -11 4
-14 -23 -12 -53 3 -60 1 -60 -15 0 -8 -4 -15 -10 -15 -5 0 -7 6 -4 13 4 10 -3
12 -27 9 -22 -3 -30 -1 -25 7 4 6 12 9 17 6 5 -4 9 -2 9 3 0 14 -27 22 -47 15
-9 -4 -25 -15 -36 -26 -11 -11 -14 -18 -6 -15 8 3 21 9 30 13 18 7 35 -20 19
-30 -6 -4 -10 -13 -10 -22 0 -13 3 -13 15 -3 12 10 16 9 21 -4 4 -11 18 -16
45 -16 21 0 39 -4 39 -10 0 -5 -6 -11 -12 -11 -53 -6 -73 -3 -94 14 -13 10
-29 15 -35 11 -6 -3 -14 -2 -18 4 -4 7 -11 7 -22 -1 -14 -11 -14 -14 2 -31 17
-18 18 -17 13 5 -2 13 -2 19 1 13 3 -7 16 -9 27 -6 16 4 20 2 15 -10 -3 -9 0
-21 6 -28 9 -10 9 -11 -3 -4 -8 4 -27 7 -42 5 -20 -2 -28 2 -28 13 0 9 -7 16
-15 16 -11 0 -15 -11 -15 -40 0 -25 5 -40 13 -40 8 0 7 -4 -3 -10 -13 -9 -12
-13 5 -27 16 -13 17 -15 3 -10 -25 9 -22 -10 3 -24 17 -9 19 -13 8 -20 -7 -4
-11 -10 -9 -12 11 -10 100 -24 100 -16 0 5 -6 9 -14 9 -15 0 -32 37 -22 47 3
4 6 -1 6 -10 0 -15 3 -14 21 4 11 11 27 18 36 15 8 -3 21 -6 29 -6 8 0 14 -7
14 -15 0 -13 4 -13 27 2 16 9 23 11 16 3 -18 -20 1 -46 39 -54 28 -6 30 -8 16
-17 -10 -5 -18 -18 -18 -27 0 -13 2 -14 9 -4 4 8 12 14 17 14 5 -1 15 9 21 21
11 20 12 19 7 -10 -7 -37 -3 -40 21 -17 12 12 19 13 29 5 10 -8 16 -8 25 3 10
11 9 16 -5 24 -16 9 -15 10 4 16 12 4 19 13 16 21 -3 7 0 16 7 21 7 4 10 3 5
-4 -3 -6 -2 -13 3 -16 5 -4 12 2 15 11 3 10 4 6 2 -9 -2 -19 1 -28 10 -28 8 0
14 -9 14 -21 0 -13 4 -18 11 -13 7 4 24 7 38 8 18 1 26 6 25 18 -1 13 7 9 30
-15 18 -18 32 -33 31 -34 0 -1 -17 2 -38 7 -22 5 -39 4 -43 -2 -3 -5 -13 -8
-22 -6 -22 3 -64 -26 -54 -38 4 -5 3 -6 -2 -1 -12 9 -19 48 -8 44 8 -2 12 6
12 28 0 8 -5 15 -11 15 -5 0 -8 -4 -5 -9 3 -4 -3 -16 -14 -26 -16 -14 -17 -20
-8 -27 10 -6 9 -8 -4 -8 -9 0 -24 -3 -32 -6 -12 -4 -15 -2 -11 9 5 10 0 14
-17 12 -32 -3 -32 -3 -18 -20 10 -13 9 -15 -9 -15 -11 0 -21 -4 -21 -10 0 -5
7 -6 17 -3 12 5 14 3 9 -8 -4 -8 -1 -6 8 5 14 17 16 17 31 2 9 -9 13 -20 10
-26 -11 -18 15 -11 37 10 16 15 25 17 35 9 9 -9 17 -8 28 1 14 11 13 14 -1 24
-14 11 -14 13 2 27 16 12 17 12 11 -3 -3 -10 -2 -18 3 -18 6 0 10 5 10 10 0 6
12 10 28 9 15 0 21 -3 14 -6 -6 -2 -12 -11 -12 -19 0 -8 -7 -14 -17 -14 -9 0
-13 -3 -10 -7 4 -3 2 -11 -3 -18 -6 -7 -4 -19 6 -33 12 -18 19 -20 40 -12 34
13 41 13 26 -2 -16 -16 -15 -31 0 -25 7 2 21 -2 31 -11 11 -10 17 -11 17 -4 0
7 4 12 9 12 5 0 7 -10 5 -22 -4 -20 -3 -21 4 -4 6 14 11 16 16 8 12 -20 43
-14 49 9 3 12 11 19 17 17 6 -2 10 -8 8 -13 -2 -6 -6 -9 -10 -8 -15 5 -8 -17
10 -34 21 -21 75 -26 68 -6 -3 7 -1 15 4 18 6 4 10 -1 10 -9 0 -9 5 -16 10
-16 13 0 13 21 0 55 l-10 27 29 -24 c17 -13 30 -29 30 -35 1 -15 37 -17 46 -3
3 6 11 10 16 10 6 0 7 -5 3 -11 -4 -7 -1 -10 7 -7 8 3 13 10 12 15 -1 6 9 8
22 5 14 -2 22 -8 19 -13 -3 -5 2 -9 11 -9 9 0 23 -7 32 -15 20 -21 38 -14 37
14 0 11 3 21 8 21 4 0 8 -9 8 -20 0 -12 7 -20 16 -20 10 0 14 6 10 15 -4 11 2
15 24 15 17 0 30 -4 30 -10 0 -6 11 -5 27 3 19 8 27 9 30 1 2 -6 16 -9 31 -7
19 3 23 2 13 -5 -11 -8 -10 -12 8 -21 17 -10 21 -9 21 4 0 8 4 15 10 15 5 0 7
-7 4 -15 -4 -8 -1 -15 7 -15 7 0 9 -3 5 -8 -4 -4 -13 -7 -18 -7 -6 0 -13 -6
-16 -13 -2 -7 2 -10 12 -6 12 5 15 2 10 -10 -3 -9 -10 -13 -15 -10 -5 3 -6 -2
-2 -11 4 -12 8 -13 13 -4 10 16 32 -24 24 -44 -3 -8 0 -35 7 -58 7 -24 12 -47
11 -51 -3 -12 16 -10 23 2 3 6 12 10 18 9 9 0 9 -2 -1 -6 -6 -2 -12 -12 -12
-20 0 -14 3 -14 20 2 14 12 28 16 50 12 17 -4 30 -2 30 3 0 6 -7 10 -15 10 -8
0 -15 8 -15 18 0 13 -2 14 -9 4 -6 -10 -10 -7 -13 13 -4 19 -2 25 8 21 8 -3
13 0 11 7 -3 19 52 21 59 3 9 -23 27 -19 21 4 -4 15 0 20 13 20 10 0 21 -8 23
-18 4 -13 5 -11 6 6 1 13 8 23 19 24 9 1 24 2 32 4 8 1 23 2 33 3 9 1 17 8 17
17 0 13 -7 15 -30 10 -17 -3 -30 -1 -30 4 0 5 -9 12 -20 15 -11 3 -20 12 -20
19 0 14 51 46 74 46 13 0 15 6 10 28 -4 21 -3 24 5 12 7 -10 11 -11 11 -2 0 6
5 12 10 12 16 0 47 35 42 48 -2 7 4 15 13 18 14 6 14 8 -2 26 -16 18 -16 19 3
12 10 -4 22 -12 25 -17 4 -5 13 -6 20 -1 8 5 25 7 38 5 15 -2 21 1 17 8 -4 6
-3 11 3 11 5 0 11 -5 13 -12 6 -18 28 1 28 25 0 18 2 19 10 7 8 -13 10 -12 10
3 0 9 -4 17 -9 17 -5 0 -7 9 -4 20 3 11 0 20 -6 20 -6 0 -11 5 -11 11 0 6 8 9
18 7 10 -2 16 -11 14 -21 -2 -10 4 -24 13 -33 8 -8 15 -11 15 -5 0 5 -5 13
-11 16 -6 4 -8 13 -5 21 3 8 0 24 -7 35 -10 16 -9 21 3 29 10 6 18 1 29 -22
13 -27 16 -29 22 -12 4 11 8 14 8 7 1 -14 54 -33 91 -33 15 0 68 -12 116 -26
116 -34 178 -40 206 -19 13 8 17 15 10 15 -7 0 -10 4 -7 10 3 5 1 19 -5 31
-17 32 3 48 30 24 16 -15 18 -21 7 -34 -10 -14 -10 -14 3 -4 9 7 54 13 100 15
l85 3 -3 40 c-2 30 0 36 8 25 9 -13 11 -13 20 0 15 23 12 28 -17 22 -24 -4
-25 -3 -12 10 8 9 17 14 22 11 15 -9 37 27 38 64 2 30 3 32 6 11 3 -22 10 -28
30 -28 22 0 24 2 13 15 -10 12 -10 19 -2 27 8 8 13 7 18 -5 13 -35 24 -3 24
69 0 41 4 74 10 74 5 0 7 20 3 49 -3 31 -1 51 6 55 8 5 8 13 0 27 -6 11 -8 27
-5 35 3 9 1 12 -5 9 -12 -8 -59 21 -59 36 0 7 12 9 30 7 31 -5 42 13 18 28
-21 13 23 21 66 13 60 -12 87 -11 85 4 -1 6 -1 26 0 42 l1 30 102 -6 c57 -3
105 -4 107 -3 8 7 -80 18 -180 23 -15 0 -27 7 -26 14 1 32 -4 47 -15 44 -8 -1
-12 7 -11 21 2 17 -3 22 -20 23 -12 0 -16 3 -9 6 18 7 15 20 -8 26 -11 3 -20
13 -19 24 0 10 3 13 6 6 6 -17 33 -17 33 0 0 7 -9 32 -20 55 -11 22 -20 46
-20 53 0 9 -3 9 -14 0 -7 -6 -12 -24 -11 -39 2 -20 -4 -33 -25 -50 -20 -16
-31 -19 -36 -11 -5 8 -3 9 6 4 10 -6 12 -4 7 9 -4 10 -1 19 8 22 13 5 13 8 0
21 -23 23 -29 60 -14 96 8 17 13 35 11 40 -1 4 3 7 9 7 6 0 9 10 7 23 -2 14
-10 22 -23 22 -17 0 -20 -6 -18 -35 1 -19 -2 -37 -6 -40 -4 -3 -13 -14 -19
-25 -10 -18 -11 -16 -12 15 0 50 -10 80 -26 80 -8 0 -14 9 -14 20 0 11 5 20
10 20 16 0 12 20 -6 27 -20 7 -36 -16 -28 -41 4 -10 0 -22 -7 -27 -11 -6 -14
-35 -12 -119 0 -61 4 -122 7 -135 7 -27 36 -35 36 -10 0 8 4 15 8 15 4 0 8
-19 9 -41 1 -23 5 -44 8 -47 9 -10 53 20 64 44 6 13 15 24 20 24 17 0 27 -73
16 -116 -12 -50 -29 -60 -33 -21 -3 25 -22 40 -22 16 0 -6 -6 -9 -14 -6 -7 3
-19 0 -26 -6 -10 -10 -12 -8 -6 6 3 10 -1 28 -9 39 -14 21 -14 21 -25 -6 -7
-20 -14 -25 -23 -18 -16 13 -199 24 -192 11 4 -5 27 -9 53 -9 73 0 126 -11
110 -22 -9 -7 -2 -8 20 -4 24 4 32 2 29 -7 -2 -6 -10 -11 -17 -9 -7 2 -23 -6
-35 -18 -18 -17 -30 -19 -62 -14 -26 4 -43 2 -47 -5 -4 -6 -1 -11 7 -11 11 0
15 -11 15 -36 0 -20 5 -40 11 -44 8 -4 4 -13 -11 -25 -13 -11 -17 -13 -11 -5
20 22 15 35 -5 17 -10 -10 -35 -17 -56 -17 -45 0 -40 -15 9 -24 19 -4 37 -11
40 -17 4 -5 -4 -61 -16 -124 -21 -107 -24 -115 -44 -109 -11 4 -27 15 -36 25
-9 11 -23 19 -30 19 -11 0 -12 2 -1 9 18 11 6 77 -15 86 -9 3 -29 0 -45 -7
-22 -10 -28 -18 -25 -34 3 -17 0 -20 -15 -16 -13 3 -16 7 -9 12 16 9 2 42 -15
36 -8 -3 -20 -8 -26 -11 -9 -4 -13 5 -13 25 0 16 3 30 8 30 4 0 7 6 7 13 0 9
10 12 30 9 25 -4 29 -1 24 13 -5 12 -2 16 12 15 46 -5 63 13 25 25 -13 4 -18
12 -14 22 5 12 1 14 -16 8 -20 -6 -21 -4 -17 22 2 15 5 31 5 35 1 3 18 4 39 1
20 -2 49 0 65 6 26 10 27 14 27 75 0 68 -24 130 -47 121 -14 -5 -38 31 -26 38
9 4 70 2 93 -4 9 -2 14 2 12 10 -2 10 4 12 20 7 13 -3 59 -8 103 -11 71 -4 75
-3 35 6 -25 5 -82 11 -126 12 l-82 2 4 37 c2 23 -2 43 -11 52 -13 12 -12 15 2
20 8 4 21 1 29 -5 10 -8 17 -3 29 22 15 29 15 33 1 48 -19 19 -49 5 -55 -25
-2 -10 -9 -23 -17 -27 -22 -13 -62 -88 -78 -147 l-15 -55 -2 50 c-1 28 -1 98
-1 157 1 89 -1 107 -14 112 -21 8 -47 -13 -39 -32 3 -8 -4 -35 -16 -60 -12
-24 -21 -59 -20 -76 3 -30 3 -84 2 -178 -1 -47 -1 -48 -31 -48 -18 0 -29 4
-25 10 3 5 0 7 -9 4 -8 -3 -23 -1 -33 4 -10 5 -49 6 -88 2 -47 -5 -74 -3 -83
4 -9 9 -5 12 19 14 28 2 89 37 97 55 2 4 7 5 11 3 4 -3 8 1 8 9 0 19 -2 19
-20 0 -17 -17 -91 -29 -81 -14 3 6 12 8 20 5 8 -3 14 -1 14 4 0 5 7 6 17 3 12
-5 14 -3 8 7 -5 8 -4 11 3 6 6 -3 13 -2 16 3 10 16 -11 22 -38 11 -21 -7 -26
-6 -26 5 0 8 -8 15 -17 15 -12 0 -14 3 -6 11 8 8 18 6 36 -6 24 -15 26 -15 32
4 3 12 11 21 16 21 6 0 8 -8 4 -19 -5 -18 21 -39 33 -26 3 3 0 5 -7 5 -8 0
-10 7 -6 20 4 12 2 20 -5 20 -6 0 -8 5 -5 10 3 6 2 10 -4 10 -5 0 -12 -4 -15
-9 -9 -13 -101 -7 -99 7 3 13 -7 15 -31 6 -9 -3 -16 -12 -16 -20 0 -8 -4 -14
-10 -14 -5 0 -10 12 -10 28 -1 23 -2 25 -11 9 -10 -17 -29 -15 -29 4 0 6 5 7
10 4 6 -3 10 -1 10 6 0 6 8 9 20 6 11 -3 20 -1 20 5 0 5 6 6 13 1 20 -12 37
-12 34 0 -1 7 6 11 17 9 10 -2 16 1 13 5 -4 5 17 6 46 2 70 -10 147 -11 146
-1 -4 27 2 41 17 35 13 -5 15 -2 10 14 -4 14 2 37 18 66 25 44 25 46 11 118
-12 63 -12 76 0 88 13 13 116 37 265 61 36 6 101 23 146 37 89 29 114 26 114
-11 0 -30 29 -49 68 -44 18 2 26 8 24 18 -2 8 -1 29 3 47 6 32 7 33 59 33 30
0 91 7 136 16 45 8 88 13 95 10 8 -3 19 2 26 10 7 8 20 12 30 9 11 -4 19 -2
19 5 0 7 8 9 19 5 10 -3 23 1 30 8 11 14 98 16 120 3 12 -8 15 -1322 3 -1330
-4 -2 -35 -1 -70 3 -61 7 -89 19 -64 28 18 7 14 33 -5 34 -10 0 -36 11 -58 25
-22 13 -47 26 -57 30 -15 5 -14 9 4 40 13 22 16 34 8 34 -9 0 -9 4 1 17 10 11
10 14 2 9 -15 -8 -17 3 -4 23 5 8 19 12 35 9 14 -3 26 -1 26 3 0 5 7 9 15 9 9
0 15 9 15 25 0 14 4 25 9 25 17 0 20 30 5 45 -9 9 -14 25 -11 36 4 15 2 19 -9
15 -22 -8 -17 9 12 37 15 15 23 32 20 39 -4 7 -13 24 -21 38 -22 38 -17 160 6
160 5 0 9 -31 9 -70 0 -55 3 -70 15 -70 11 0 13 10 9 48 -7 53 -5 122 2 134 3
4 2 14 -2 20 -5 7 -7 29 -6 48 l3 35 -20 -25 c-24 -29 -28 -15 -6 17 13 19 12
23 -13 48 -25 26 -26 27 -4 21 19 -6 22 -4 22 18 0 21 -5 26 -23 26 -32 0 -37
-7 -27 -40 6 -22 4 -32 -11 -46 -18 -16 -18 -18 -2 -37 15 -17 12 -16 -14 3
-35 25 -42 36 -18 26 8 -3 15 0 15 5 0 7 -11 9 -26 6 -19 -3 -27 0 -33 17 -6
15 -10 6 -15 -38 -6 -44 -5 -61 6 -67 22 -14 28 -10 29 19 l1 27 7 -25 c4 -14
6 -42 3 -62 -4 -30 -1 -38 11 -38 12 0 17 12 19 47 2 35 7 48 18 48 10 0 14
-8 13 -25 -2 -14 -4 -44 -5 -66 -2 -23 -7 -39 -12 -36 -5 3 -7 -22 -3 -61 5
-51 3 -68 -8 -77 -9 -7 -15 -30 -15 -55 0 -35 4 -44 21 -48 27 -7 19 -32 -9
-31 -18 0 -22 -7 -28 -45 -4 -25 -17 -72 -29 -103 -13 -31 -26 -71 -30 -87 -4
-18 -15 -33 -26 -36 -15 -5 -20 -15 -19 -38 3 -45 1 -54 -8 -40 -4 7 -49 14
-112 18 -73 4 -100 3 -89 -4 9 -6 31 -12 50 -15 19 -3 59 -11 89 -19 l55 -14
-3 -57 c-2 -39 2 -65 12 -81 14 -21 14 -25 -2 -46 -18 -21 -21 -21 -87 -10
-37 7 -86 19 -109 27 -51 18 -156 30 -156 18 2 -28 260 -108 329 -102 38 3 36
1 60 111 11 50 23 60 17 14 -3 -20 -1 -39 4 -42 4 -3 6 -14 3 -24 -3 -10 0
-22 6 -26 9 -5 10 12 5 62 -7 73 -1 81 15 17 10 -39 10 -39 6 11 -6 71 -7 75
-18 75 -5 0 -7 -7 -3 -15 3 -8 1 -15 -4 -15 -6 0 -10 17 -10 39 0 21 -3 54 -6
72 -4 19 -3 31 1 27 4 -4 14 0 22 10 12 16 14 15 33 -7 19 -22 25 -17 21 16
-1 7 2 13 7 13 14 0 43 -36 35 -43 -3 -4 1 -7 11 -7 30 0 14 -34 -19 -41 -35
-8 -33 -9 18 -15 21 -3 37 0 37 6 0 13 37 13 42 0 2 -6 23 -14 48 -18 l45 -8
0 -196 c0 -144 -3 -200 -12 -210 -17 -16 -16 -28 2 -28 8 0 15 -6 15 -14 0
-19 -17 -29 -25 -16 -3 5 -19 10 -34 10 -16 0 -104 16 -197 35 -156 32 -244
43 -244 30 0 -16 27 -31 46 -27 18 3 335 -91 430 -128 23 -9 22 17 37 -579 l2
-74 -30 -9 c-52 -15 -677 -21 -995 -9 -168 6 -514 22 -770 36 -799 42 -1560
60 -1560 35 0 -5 23 -11 50 -11 70 -2 96 -11 84 -30 -3 -5 -10 -7 -15 -3 -5 3
-6 10 -3 16 4 5 -5 2 -20 -7 -15 -10 -30 -15 -34 -11 -3 4 0 11 8 16 12 8 11
10 -6 10 -12 0 -25 -7 -28 -16 -4 -9 -13 -14 -21 -10 -12 4 -15 -7 -15 -64 l0
-70 348 3 c421 2 672 0 1382 -14 597 -11 572 -8 586 -71 11 -52 60 -49 -611
-28 -181 6 -355 13 -385 15 -30 3 -293 4 -585 4 -292 -1 -576 0 -632 1 l-103
2 0 -261 0 -261 705 0 c666 0 704 1 699 18 -5 16 -5 16 6 0 10 -17 159 -18
2858 -17 1566 1 2834 5 2817 9 -18 5 -23 9 -12 10 28 4 32 5 42 12 12 7 48
-16 39 -25 -4 -3 185 -6 419 -7 l426 0 1 216 0 216 -182 -2 c-101 -1 -202 -5
-226 -7 -38 -5 -41 -7 -25 -18 10 -7 22 -10 28 -7 18 11 45 12 45 1 0 -5 -4
-7 -10 -4 -5 3 -10 1 -10 -5 0 -6 -6 -10 -12 -9 -30 4 -91 -2 -85 -7 3 -4 2
-15 -3 -25 -8 -13 -6 -20 7 -28 14 -8 15 -10 3 -11 -8 0 -25 -3 -37 -6 -15 -4
-23 -2 -23 6 0 7 7 10 15 6 9 -3 15 0 15 9 0 7 -12 15 -27 18 l-28 4 32 7 c22
6 33 16 38 33 3 14 4 28 1 31 -3 3 -208 4 -455 3 -380 -2 -451 0 -463 12 -10
10 -20 12 -30 6 -21 -12 -105 -17 -296 -18 -99 -1 -151 -5 -147 -11 3 -6 2
-10 -4 -10 -5 0 -11 4 -13 10 -3 9 -524 18 -741 12 -98 -3 -118 -6 -113 -18 3
-8 -1 -14 -9 -14 -8 0 -15 7 -15 16 0 14 -13 16 -105 12 -58 -2 -105 -1 -105
2 0 3 -93 6 -208 7 -361 4 -890 12 -1097 18 -110 3 -335 8 -500 10 -336 5
-608 13 -705 21 -72 6 -99 27 -100 77 0 23 4 27 28 27 81 -1 669 -21 740 -25
63 -5 82 -3 82 7 0 10 2 10 8 1 5 -8 57 -13 162 -16 85 -2 169 -7 185 -10 58
-13 105 -16 105 -6 0 6 7 6 18 0 13 -7 23 -6 31 2 9 9 14 9 20 -2 6 -8 14 -10
22 -5 8 4 27 7 42 5 23 -2 134 -6 307 -9 105 -2 330 5 336 11 4 4 0 7 -9 7
-10 0 -17 6 -17 14 0 12 -33 30 -52 27 -4 0 -5 6 -2 13 3 8 12 12 20 9 21 -8
17 5 -5 17 -15 7 -23 6 -35 -5 -9 -9 -17 -11 -21 -5 -3 5 -1 10 6 10 8 0 8 4
-1 15 -8 9 -8 15 -2 15 6 0 12 -4 14 -10 3 -10 85 14 101 29 5 5 -153 11 -350
14 -197 3 -370 9 -385 13 -25 6 -28 11 -28 49 0 47 9 55 63 55 24 0 28 3 17
10 -8 5 -10 10 -5 10 6 0 3 6 -5 13 -16 13 -23 33 -21 57 1 8 1 23 2 33 0 9 4
17 8 17 8 0 7 36 -3 82 -4 15 -2 30 4 33 12 8 13 45 1 45 -14 0 -23 33 -10 40
8 6 8 13 0 28 -6 11 -8 28 -5 36 4 10 1 16 -7 16 -9 0 -10 3 -2 11 7 7 8 21 3
40 -5 17 -5 31 1 34 5 4 5 13 1 23 -5 9 -8 79 -8 154 1 75 -1 135 -4 133 -9
-5 -6 90 4 96 4 4 3 16 -3 27 -6 11 -7 23 -2 26 7 5 7 93 -2 171 l-3 30 61 2
c33 2 77 6 98 9 21 4 43 2 50 -4 30 -25 163 -52 258 -52 54 0 99 3 102 8 2 4
2 1 1 -5 -2 -7 1 -13 6 -13 5 0 7 -15 3 -32 -3 -18 -5 -46 -4 -62 0 -24 -2
-27 -22 -22 -12 4 -58 11 -102 16 -44 4 -102 14 -129 20 -69 15 -206 23 -206
11 0 -5 13 -12 29 -16 16 -3 35 -12 41 -20 6 -8 37 -20 68 -27 51 -11 53 -13
25 -16 -18 -2 -33 -7 -33 -12 0 -14 35 -21 92 -20 88 3 273 -18 314 -35 21 -8
44 -13 51 -11 13 5 221 -9 281 -20 24 -4 32 -9 28 -20 -3 -8 3 -23 14 -34 20
-20 98 -46 108 -36 3 4 -7 20 -23 36 -19 20 -24 30 -14 30 12 0 12 2 -1 9 -8
6 -18 7 -22 5 -4 -3 -8 6 -8 20 0 15 6 26 13 26 7 0 24 13 39 30 14 16 35 30
46 30 21 0 72 -36 72 -51 0 -14 -28 -11 -33 4 -3 7 -6 5 -6 -6 -1 -17 46 -44
57 -33 2 3 12 -3 21 -13 18 -20 76 -47 66 -31 -9 15 12 12 28 -5 8 -8 17 -12
20 -9 3 3 48 -4 101 -16 52 -12 107 -21 123 -20 15 1 45 2 66 3 25 1 36 6 32
15 -2 6 0 12 6 12 6 0 13 -9 16 -20 3 -11 12 -20 20 -20 8 0 12 4 8 9 -3 5 7
12 22 14 l28 4 -27 2 c-16 0 -28 6 -28 11 0 6 -9 19 -20 30 l-20 20 25 10 c36
14 36 14 33 -17 -2 -20 2 -28 15 -31 15 -3 18 0 12 17 -9 30 28 28 44 -1 10
-20 11 -18 5 16 -4 32 -3 38 8 29 7 -5 23 -13 36 -16 21 -5 23 -3 17 26 -4 18
-16 56 -28 85 -18 46 -24 52 -43 48 -16 -4 -28 1 -42 19 -23 29 -32 32 -32 10
0 -8 -4 -15 -10 -15 -13 0 -13 27 0 35 7 4 7 12 0 25 -13 25 -13 51 1 28 5
-10 16 -18 23 -18 21 0 27 27 10 41 -8 7 -13 18 -10 26 4 8 -8 22 -28 34 -30
17 -45 42 -46 73 0 5 11 -1 24 -13 26 -25 46 -21 46 9 0 12 -10 21 -27 25 -20
5 -34 19 -49 50 -14 29 -17 46 -10 49 10 4 -20 36 -33 36 -3 0 -24 -28 -47
-63 -49 -74 -47 -102 7 -102 25 0 33 -4 31 -15 -5 -19 18 -100 36 -127 7 -12
11 -27 7 -33 -4 -6 -11 -35 -15 -63 -5 -29 -14 -83 -21 -120 l-12 -69 -171 7
c-158 7 -172 9 -188 29 -25 30 -22 39 10 32 21 -5 24 -4 12 4 -12 9 -12 13 -2
17 27 11 62 51 62 71 0 14 -11 27 -31 37 -28 15 -32 15 -50 -1 -10 -9 -21 -25
-24 -35 -4 -10 -22 -23 -43 -28 -29 -9 -39 -7 -54 6 -16 14 -18 14 -18 1 0
-24 -32 -32 -47 -12 -7 10 -13 22 -13 26 0 9 -81 148 -86 148 -4 0 17 -74 27
-92 6 -10 5 -19 -1 -23 -17 -11 -11 -26 25 -58 19 -17 35 -37 35 -45 0 -17 -3
-15 -62 27 -40 29 -45 36 -32 48 18 19 18 24 -3 16 -11 -4 -14 -3 -9 5 12 20
-4 35 -22 20 -9 -7 -13 -8 -10 -2 4 5 3 27 -2 48 -6 27 -4 45 6 64 8 15 14 33
14 40 0 6 5 12 10 12 16 0 7 23 -17 47 -13 12 -23 27 -23 33 0 5 -5 10 -11 10
-17 0 -46 33 -32 37 7 3 10 10 7 17 -5 14 42 40 56 31 11 -7 -18 66 -31 80 -6
5 -15 10 -21 10 -6 0 -13 6 -15 13 -3 6 0 12 5 12 5 0 21 10 36 21 l27 21 -20
22 c-10 11 -22 38 -26 58 -4 21 -11 36 -15 33 -5 -3 -11 -1 -15 5 -3 5 5 14
19 20 14 5 26 17 26 26 0 11 -5 14 -16 10 -14 -5 -15 -4 -4 9 7 9 10 18 6 22
-3 3 -6 1 -6 -5 0 -7 -4 -12 -10 -12 -5 0 -10 7 -10 15 0 8 5 15 11 15 5 0 7
5 4 10 -11 17 -43 11 -58 -11 -11 -15 -13 -29 -6 -51 6 -24 5 -34 -7 -43 -14
-10 -14 -12 0 -24 24 -20 19 -40 -11 -47 -21 -6 -30 -2 -41 14 -18 27 -32 28
-32 2 0 -25 -16 -25 -57 0 -20 12 -33 28 -33 40 0 11 -7 20 -15 20 -20 0 -19
-22 3 -42 9 -9 22 -23 29 -31 7 -8 17 -17 24 -19 9 -3 5 -14 -11 -35 -14 -20
-21 -40 -17 -52 8 -33 -11 -35 -38 -4 -13 15 -25 22 -25 16 0 -28 -18 -10 -24
25 -4 20 -10 45 -13 56 -3 12 -1 16 6 12 6 -4 11 -3 11 3 0 5 14 3 31 -6 38
-19 47 -11 20 16 -12 12 -21 28 -21 37 0 10 -6 14 -15 10 -9 -3 -15 0 -15 9 0
8 4 15 9 15 13 0 42 77 35 94 -17 44 -83 23 -85 -27 -1 -18 -2 -41 -3 -52 -1
-11 8 -28 19 -38 14 -12 15 -17 5 -15 -8 2 -16 -6 -18 -19 -2 -12 -10 -27 -18
-33 -8 -7 -14 -20 -14 -30 0 -10 -7 -31 -15 -46 -20 -38 -21 -81 -1 -65 11 9
16 0 29 -46 17 -61 16 -79 -10 -179 l-15 -61 -52 9 c-28 5 -71 13 -96 18 -25
5 -68 12 -96 16 l-52 6 -10 52 c-7 35 -7 53 0 57 12 7 -3 41 -18 41 -5 0 -8 5
-6 10 2 6 0 24 -3 40 -5 23 -12 28 -28 26 -15 -2 -22 -10 -22 -25 0 -42 -18
-29 -19 13 -1 40 0 41 25 34 24 -7 26 -6 21 14 -6 27 -22 47 -32 41 -5 -3 -11
-1 -15 5 -10 16 23 24 41 10 12 -11 20 -10 42 7 15 10 35 22 45 26 18 7 24 27
8 27 -6 0 -25 -9 -43 -20 l-34 -19 -14 47 -15 47 -3 -42 c-3 -42 -32 -72 -32
-34 0 11 -3 26 -6 35 -4 11 -1 16 10 16 9 0 17 8 17 18 1 9 3 24 4 32 1 8 3
25 4 37 1 16 6 21 16 17 8 -4 15 -1 15 7 0 7 -3 10 -6 6 -4 -3 -22 0 -41 8
-20 8 -47 15 -62 15 -20 0 -23 2 -11 10 11 7 11 10 2 10 -7 0 -10 5 -6 11 3 6
0 15 -7 20 -10 6 -11 11 -3 19 13 13 -2 68 -21 82 -6 5 -5 8 2 8 17 0 13 48
-5 77 -13 20 -12 24 2 29 15 6 14 9 -6 31 -17 18 -18 22 -5 17 10 -3 17 -1 17
5 0 6 -6 11 -14 11 -8 0 -18 10 -22 23 -11 32 -11 40 -1 55 6 8 5 12 -4 12
-10 1 -9 4 4 14 22 17 22 22 -5 30 -17 4 -20 8 -11 17 9 9 8 15 -3 27 -9 8
-11 18 -6 21 5 3 8 17 7 31 -1 14 3 28 9 33 8 5 8 9 0 15 -15 10 -27 45 -13
36 8 -4 7 0 0 15 -14 25 -7 41 17 41 12 0 13 3 4 12 -7 7 -12 22 -12 35 0 13
-5 23 -12 23 -8 0 -6 7 5 17 16 16 47 18 315 20 163 1 371 4 462 8 91 3 305 5
475 3 171 -1 355 -2 410 -2 l100 -1 3 -47 c2 -29 -2 -51 -10 -59 -16 -14 -11
-90 6 -101 6 -4 -16 -8 -49 -9 l-60 -2 73 -9 c62 -8 76 -8 90 5 10 10 23 13
30 8 8 -4 46 -9 85 -10 40 -1 77 -3 84 -3 14 -1 27 -28 14 -28 -13 0 -23 -32
-13 -42 6 -6 22 -2 40 10 29 17 30 19 15 35 -16 16 -16 17 -1 17 9 0 20 -4 23
-10 9 -15 65 17 66 38 0 10 3 12 6 5 6 -17 43 -16 67 2 17 13 18 19 8 71 -7
31 -9 60 -7 65 3 4 0 17 -6 27 -7 11 -10 26 -6 34 5 14 66 15 486 14 l481 -1
2 164 3 165 145 28 c174 33 441 97 454 109 6 5 -66 10 -165 10 -95 1 -241 5
-324 9 -92 5 -8 6 220 3 204 -3 394 -6 423 -8 38 -2 50 1 43 9 -9 11 3 103 15
115 3 3 33 5 67 5 44 -1 49 0 17 3 -59 6 -84 32 -82 87 2 32 0 38 -9 26 -9
-13 -10 -12 -5 3 3 10 6 25 6 33 0 9 3 13 8 11 4 -3 7 8 7 24 0 16 -3 29 -7
29 -5 0 -8 5 -8 11 0 5 5 7 11 3 8 -5 8 -1 0 14 -14 27 -14 35 2 26 10 -6 10
-4 0 7 -15 16 -17 33 -3 24 14 -9 12 9 -2 23 -9 9 -9 15 -2 20 15 10 12 132
-3 132 -7 0 -13 9 -13 19 0 15 5 18 23 14 19 -4 20 -3 7 9 -17 14 -15 48 4 60
8 6 7 8 -1 8 -7 0 -13 5 -13 11 0 5 5 7 12 3 8 -5 9 -2 5 9 -4 10 -10 24 -13
32 -3 8 -1 15 5 15 15 0 14 57 -2 63 -9 4 -8 6 2 6 11 1 11 4 1 16 -10 12 -10
15 1 15 11 0 11 2 -1 10 -8 5 -10 10 -4 10 8 0 9 13 4 40 -4 22 -4 43 0 45 4
3 7 43 5 91 l-2 86 51 -7 c28 -3 56 -11 64 -17 10 -9 12 -53 10 -200 -2 -103
0 -188 5 -188 4 0 6 91 5 202 l-3 202 -52 11 c-29 7 -54 9 -55 6 -1 -3 -4 21
-7 54 -5 52 -9 60 -31 66 -16 4 -19 7 -7 8 13 1 17 10 17 35 0 19 -4 37 -10
41 -5 3 -6 15 0 29 4 13 4 29 0 37 -6 8 -4 17 3 21 7 5 -19 8 -58 8 -38 0 -95
1 -125 3 -61 3 -80 0 -80 -15 0 -5 10 -6 22 -3 16 6 20 4 15 -9 -3 -8 -2 -18
4 -21 5 -4 9 -3 8 2 -3 18 2 33 10 33 5 0 8 -13 6 -30 -3 -23 0 -30 13 -30 13
0 14 2 4 9 -10 6 -10 10 2 20 24 20 72 20 84 0 12 -18 -1 -21 -24 -6 -16 9 -9
-60 7 -79 7 -8 9 -17 6 -21 -4 -3 -9 2 -13 11 -3 9 -11 13 -17 9 -6 -4 -8 0
-4 10 3 9 1 19 -4 23 -7 4 -8 20 -5 37 4 21 3 28 -4 21 -5 -5 -11 -22 -12 -36
-2 -21 -5 -24 -15 -16 -9 7 -13 7 -13 0 0 -6 7 -15 15 -19 10 -6 11 -13 5 -23
-8 -13 -10 -13 -10 2 0 24 -18 32 -37 16 -10 -8 -14 -8 -10 -1 4 6 3 14 -3 18
-5 3 -10 0 -11 -7 0 -7 -2 -22 -4 -33 -2 -11 1 -23 8 -27 7 -4 -41 -8 -105 -8
-110 0 -117 -1 -120 -20 -3 -19 -8 -16 -52 22 l-49 43 29 3 c16 1 35 10 42 19
17 24 15 37 -4 19 -20 -21 -24 -20 -19 4 3 13 -2 20 -12 20 -10 0 -14 -6 -10
-20 3 -11 1 -20 -4 -20 -5 0 -9 1 -9 3 0 1 -4 17 -9 35 -6 20 -6 30 0 27 5 -4
9 -1 9 4 0 6 14 11 30 11 25 0 30 4 30 25 l0 25 -107 1 c-60 0 -148 7 -198 14
l-90 14 74 -5 c59 -4 72 -3 66 8 -6 10 -5 11 6 1 18 -17 295 -18 305 -1 5 7 3
8 -7 3 -12 -7 -12 -6 -1 7 10 13 10 17 -3 22 -9 3 -15 0 -15 -9 0 -18 -12 -19
-29 -2 -8 7 -11 7 -8 1 4 -7 -4 -14 -19 -17 -22 -4 -25 -1 -21 15 5 16 3 17
-11 6 -13 -11 -15 -10 -10 8 3 12 0 21 -7 21 -7 0 -11 -11 -9 -24 2 -19 -1
-21 -16 -13 -14 7 -20 6 -24 -7 -6 -14 -8 -14 -20 2 -7 10 -24 20 -36 22 -23
3 -23 3 -4 -18 19 -22 19 -22 -4 -10 -12 7 -27 9 -32 6 -6 -3 -10 -2 -10 4 0
14 -30 7 -42 -10 -8 -11 -9 -11 -4 4 3 9 1 17 -3 17 -5 0 -18 15 -30 33 -11
17 -21 28 -21 24 0 -5 9 -22 21 -38 11 -16 16 -29 10 -29 -5 0 -18 -3 -28 -6
-15 -5 -16 -4 -3 5 13 10 13 13 -2 25 -10 7 -15 16 -11 19 3 4 -4 5 -15 2 -11
-2 -23 3 -26 11 -3 8 -11 14 -18 13 -10 0 -10 -2 0 -6 6 -2 12 -11 12 -19 0
-9 -4 -12 -10 -9 -6 3 -7 -1 -4 -9 7 -18 20 -21 29 -6 3 5 12 7 20 4 8 -4 12
-11 9 -16 -4 -6 -9 -6 -14 2 -5 9 -9 9 -14 1 -4 -6 -16 -11 -26 -11 -10 0 -20
-4 -22 -10 -2 -5 -14 -6 -28 -3 l-25 7 29 6 c72 13 -19 53 -101 45 -33 -3 -53
-1 -53 5 0 5 5 10 11 10 5 0 7 5 4 10 -4 6 -10 8 -15 5 -4 -3 -7 1 -6 7 3 20
16 38 28 38 7 0 6 -6 -2 -15 -18 -22 -3 -18 19 4 22 22 8 34 -21 20 -11 -6
-22 -4 -32 6 -16 17 -30 20 -21 6 3 -5 0 -13 -6 -17 -7 -4 -8 -9 -1 -13 6 -4
2 -16 -10 -31 -21 -25 -21 -25 -15 -2 4 19 3 21 -9 11 -12 -10 -13 -9 -9 4 4
8 1 18 -4 22 -6 3 -9 11 -6 16 10 15 -22 10 -38 -6 -8 -8 -17 -12 -19 -9 -11
10 -48 12 -53 3 -4 -5 -11 -7 -16 -3 -5 3 -7 10 -4 15 6 8 -16 14 -38 10 -5
-1 -19 7 -32 17 -18 14 -21 22 -12 31 8 8 6 11 -8 11 -19 1 -19 1 -2 11 9 5
17 14 17 20 0 6 -15 -4 -32 -20 -18 -17 -38 -31 -45 -31 -6 0 -14 -6 -17 -12
-3 -7 -3 -3 0 9 4 17 2 21 -10 17 -8 -3 -13 -14 -11 -25 2 -11 0 -17 -6 -14
-5 4 -6 11 -3 17 5 7 2 9 -8 5 -17 -6 -19 16 -3 30 4 4 5 2 0 -6 -5 -9 -3 -12
5 -9 7 2 20 15 28 29 13 23 13 23 -2 5 -9 -11 -16 -14 -16 -7 0 7 -4 9 -10 6
-5 -3 -10 -1 -10 4 0 6 5 11 12 11 6 0 9 2 7 5 -8 8 -49 -7 -43 -16 5 -8 0
-11 -28 -13 -6 -1 -13 12 -15 28 -3 21 0 27 10 23 7 -3 14 1 14 9 0 7 -5 10
-10 7 -5 -3 -7 0 -5 8 3 8 13 13 22 13 9 -1 17 2 17 7 1 5 2 15 3 22 1 6 9 11
19 9 9 -2 17 1 18 5 0 4 2 15 4 24 2 12 -3 15 -20 11 -16 -3 -22 -9 -18 -19 5
-13 3 -13 -16 -2 -21 14 -21 14 6 23 16 5 36 15 45 24 16 13 18 13 24 -2 3 -9
10 -13 15 -10 15 9 50 -6 42 -19 -5 -9 -3 -9 8 0 12 10 21 9 44 -3 16 -8 26
-12 22 -8 -3 4 3 15 15 26 12 10 18 21 14 25 -3 4 -13 -3 -22 -15 -11 -16 -20
-19 -37 -13 -21 8 -29 10 -44 12 -5 0 1 4 12 8 12 5 23 4 27 -3 5 -8 8 -7 8 2
0 8 5 10 12 6 7 -5 9 -2 5 9 -7 19 23 33 34 15 6 -9 9 -8 14 4 4 9 17 19 30
22 25 7 27 34 4 62 -7 8 -8 18 -4 22 4 4 10 1 12 -5 8 -23 42 -59 40 -43 -2 8
-6 20 -10 26 -4 7 0 14 8 18 14 5 19 -6 18 -41 -1 -8 7 -6 22 5 14 10 20 23
17 36 -3 13 -1 17 6 12 8 -5 10 -1 5 10 -5 13 -3 15 8 8 17 -11 58 -17 44 -7
-11 9 -19 43 -10 43 3 0 11 -14 17 -31 6 -16 13 -28 15 -25 3 3 15 1 26 -5 12
-7 17 -7 13 -1 -3 6 -3 12 1 15 5 2 3 2 -4 1 -6 -2 -17 5 -25 14 -11 15 -11
15 2 5 12 -9 21 -8 40 2 14 8 19 14 12 15 -7 0 -11 4 -7 10 3 5 11 8 18 6 7
-1 9 -1 4 1 -18 11 -5 23 14 12 32 -17 72 6 58 34 -9 15 -8 18 3 15 7 -3 13
-11 13 -19 0 -9 10 -13 28 -12 19 1 27 -3 27 -15 0 -15 -2 -15 -10 -2 -8 13
-10 13 -10 -2 0 -14 7 -16 36 -13 22 3 33 1 29 -5 -3 -5 -1 -10 5 -10 6 0 9
-4 5 -9 -3 -5 -1 -13 5 -16 6 -4 10 -3 9 2 -4 21 3 33 22 44 15 8 19 8 15 0
-4 -6 -2 -11 4 -11 6 0 9 -4 6 -9 -5 -7 34 -25 40 -18 2 1 -13 20 -32 41 -19
21 -38 45 -42 53 -6 11 -52 15 -213 18 -514 12 -666 13 -677 6 -12 -7 -34
-101 -29 -124 1 -6 -9 -13 -22 -15 -18 -3 -22 0 -18 12 3 8 2 18 -3 21 -5 3
-7 12 -4 20 4 10 -6 15 -38 19 -55 6 -78 5 -79 -6 -1 -4 -3 -12 -4 -18 -1 -5
-3 -16 -4 -24 0 -8 -18 -16 -42 -19 -23 -3 -45 -11 -49 -17 -4 -7 -13 -80 -20
-164 l-13 -153 -274 -7 c-151 -3 -278 -4 -282 -1 -5 2 -11 18 -14 35 -6 29 -8
30 -67 30 -117 0 -530 -50 -710 -86 -120 -24 -170 -43 -170 -64 0 -10 -3 -21
-8 -24 -11 -6 -502 -89 -507 -85 -11 12 -9 475 3 493 3 5 6 60 8 122 1 62 5
118 9 124 4 7 1 16 -6 21 -11 7 -11 11 -1 17 9 6 14 47 17 133 2 68 4 124 5
124 1 0 10 147 13 210 l2 60 -81 -3 -82 -3 -4 46 c-2 26 0 49 5 52 4 2 32 7
63 10 30 3 57 9 59 13 3 4 -25 21 -62 36 -37 16 -90 46 -117 66 -28 21 -65 43
-83 49 -18 6 -33 15 -33 20 0 5 -8 9 -17 10 -21 0 -138 64 -177 95 -28 23 -27
50 2 57 42 9 219 -86 229 -124 3 -10 8 -19 12 -20 3 0 17 -2 31 -4 35 -4 181
-58 213 -80 15 -9 27 -21 27 -26 0 -5 7 -9 15 -9 8 0 39 -13 68 -30 l54 -30
260 0 c143 0 329 4 414 10 85 5 217 11 294 14 120 3 141 2 152 -13 11 -14 13
-14 19 7 8 27 20 28 27 2 3 -11 10 -20 17 -20 7 0 14 9 17 20 5 17 14 20 69
20 56 0 63 -2 58 -17 -5 -17 -5 -17 8 -1 14 16 16 16 32 0 17 -16 18 -16 11 6
-5 19 -3 22 20 22 14 0 28 -7 31 -15 8 -19 24 -20 24 -2 0 10 26 16 98 20 151
10 157 10 171 -15 11 -22 11 -22 6 -2 -5 20 -1 22 41 26 25 2 48 0 51 -5 3 -4
10 -4 16 1 19 14 77 14 77 0 0 -9 3 -10 8 -2 10 15 90 25 98 12 4 -6 10 -5 15
3 6 10 9 11 9 2 0 -8 13 -13 33 -12 26 0 28 2 12 8 l-20 8 20 4 c16 4 12 8
-20 23 -47 22 -593 302 -615 316 -8 5 -76 39 -150 75 -142 69 -241 130 -248
154 -12 38 206 -33 367 -120 29 -15 57 -26 62 -24 4 3 79 -30 166 -74 87 -43
212 -104 278 -136 66 -32 138 -69 159 -83 22 -14 89 -47 149 -73 91 -41 119
-49 168 -49 52 0 59 -2 59 -20 0 -24 22 -26 40 -5 8 9 8 15 2 15 -6 0 -12 -6
-15 -12 -2 -7 -8 -10 -12 -6 -4 4 -5 14 -1 23 9 23 92 15 88 -9 -2 -9 2 -16 8
-16 5 0 10 8 11 18 0 14 2 14 9 -3 8 -19 9 -19 9 3 1 14 7 22 19 22 9 0 49 2
87 5 39 2 140 6 225 10 85 3 202 8 260 11 108 5 118 3 139 -31 10 -18 11 -16
6 12 -7 33 -2 40 58 91 15 12 28 22 30 22 1 0 1 -19 -1 -43 l-4 -44 181 5 180
4 7 -26 c6 -25 10 -27 53 -24 39 3 48 7 59 31 13 26 16 27 93 27 l80 0 6 -30
c3 -17 10 -33 14 -36 5 -3 9 -41 9 -84 0 -70 2 -81 22 -95 23 -15 23 -15 26
36 2 29 -2 57 -9 65 -9 11 -9 18 -1 26 9 9 12 83 12 249 l0 237 -57 7 c-74 9
-204 42 -262 67 -69 29 -178 144 -157 165 3 3 32 -4 63 -15 103 -37 145 -43
260 -33 59 5 110 8 112 5 3 -2 -3 -20 -12 -40 -20 -41 -17 -48 23 -62 l30 -11
0 260 0 259 -4000 0 -4000 0 0 -726z m6655 479 c12 -23 34 -45 57 -55 38 -18
44 -31 50 -118 2 -24 9 -38 24 -44 12 -5 27 -25 33 -43 7 -18 17 -31 22 -28
14 9 11 -21 -4 -33 -9 -8 -25 -8 -52 -1 -22 6 -50 13 -62 16 -17 4 -31 -3 -54
-28 -30 -32 -31 -34 -25 -111 6 -96 -2 -98 -71 -25 -72 76 -108 156 -107 237
1 81 17 140 49 177 54 62 61 69 85 80 35 16 33 17 55 -24z m823 -11 c-1 -4 4
-20 11 -37 7 -16 14 -57 16 -90 1 -33 6 -87 10 -120 7 -56 5 -65 -26 -123 -71
-136 -220 -242 -383 -273 -100 -19 -118 -2 -20 20 160 36 296 132 362 257 29
57 32 69 31 150 0 49 -6 121 -13 161 -10 58 -10 70 0 66 8 -3 13 -8 12 -11z
m-1052 -118 c3 -19 4 -38 1 -41 -7 -6 -43 15 -68 39 -8 7 -27 21 -42 31 -34
22 -31 40 9 47 41 8 91 -31 100 -76z m-595 -21 c13 -15 50 -54 83 -87 65 -66
66 -79 8 -105 -26 -12 -32 -21 -33 -45 -1 -31 -27 -112 -28 -88 -1 8 -9 10
-23 7 -27 -6 -37 0 -67 43 -12 17 -27 32 -32 32 -6 0 4 -20 21 -45 17 -25 26
-45 20 -45 -6 0 -25 22 -41 49 -24 39 -38 50 -65 55 -43 9 -51 22 -26 49 26
29 37 52 51 112 18 73 35 95 75 95 24 0 41 -8 57 -27z m1716 -243 c3 -11 9
-20 14 -20 5 0 9 -10 9 -22 0 -33 46 -147 85 -213 38 -62 43 -85 20 -85 -18 0
-76 103 -120 215 -46 117 -51 145 -30 145 9 0 19 -9 22 -20z m-741 -216 c17
-7 70 -19 118 -26 96 -13 114 -35 25 -30 -52 4 -224 44 -235 55 -4 3 -3 10 1
16 7 12 39 6 91 -15z m-2276 -4 c0 -13 -11 -13 -30 0 -12 8 -11 10 8 10 12 0
22 -4 22 -10z m-2157 -51 c-6 -20 -80 -75 -96 -71 -4 1 -10 -5 -13 -13 -8 -21
-164 -132 -197 -140 -18 -5 -32 -2 -44 10 -16 17 -16 19 12 42 17 13 66 42
110 63 45 22 97 57 119 80 34 35 53 45 79 41 4 0 7 3 7 9 0 5 6 7 14 4 8 -3
12 -13 9 -25z m2107 1 c0 -5 -4 -10 -10 -10 -5 0 -10 5 -10 10 0 6 5 10 10 10
6 0 10 -4 10 -10z m2060 0 c0 -5 -4 -10 -10 -10 -5 0 -10 5 -10 10 0 6 5 10
10 10 6 0 10 -4 10 -10z m177 -6 c-3 -3 -12 -4 -19 -1 -8 3 -5 6 6 6 11 1 17
-2 13 -5z m-181 -1012 c-17 -16 -18 -16 -5 5 7 12 15 20 18 17 3 -2 -3 -12
-13 -22z m-231 8 c3 -6 -4 -10 -17 -10 -18 0 -20 2 -8 10 19 12 18 12 25 0z
m-72 -7 c-18 -2 -48 -2 -65 0 -18 2 -4 4 32 4 36 0 50 -2 33 -4z m521 -8 c-4
-8 -11 -15 -16 -15 -6 0 -5 6 2 15 7 8 14 15 16 15 2 0 1 -7 -2 -15z m-104 1
c0 -2 -7 -7 -16 -10 -8 -3 -12 -2 -9 4 6 10 25 14 25 6z m220 -12 c0 -8 -5
-12 -10 -9 -6 4 -8 11 -5 16 9 14 15 11 15 -7z m-666 -6 c-3 -4 10 -9 28 -9
18 -1 25 -3 16 -6 -10 -2 -18 -11 -18 -19 0 -8 -8 -14 -17 -13 -11 0 -13 3 -5
6 16 6 15 20 -3 27 -11 4 -15 -1 -15 -18 0 -27 45 -80 60 -71 6 3 10 -1 10
-10 0 -9 -4 -13 -10 -10 -5 3 -10 -1 -10 -9 0 -13 -3 -13 -19 3 -11 11 -22 27
-25 38 -3 10 -4 3 -2 -14 2 -30 0 -33 -24 -33 -26 0 -26 1 -20 60 3 33 2 67
-2 75 -7 11 -2 14 26 13 19 -1 33 -5 30 -10z m106 -25 c0 -28 -3 -34 -10 -23
-5 8 -7 22 -5 31 4 12 -3 16 -31 17 -54 2 -55 12 -1 12 l47 0 0 -37z m370 33
c0 -2 -8 -10 -17 -17 -16 -13 -17 -12 -4 4 13 16 21 21 21 13z m-235 -16 c-3
-5 -12 -10 -18 -10 -7 0 -6 4 3 10 19 12 23 12 15 0z m-308 -82 c-2 -18 -4 -6
-4 27 0 33 2 48 4 33 2 -15 2 -42 0 -60z m148 58 c0 -13 -4 -22 -10 -19 -5 3
-5 0 1 -6 13 -14 7 -54 -7 -45 -14 8 -11 82 4 87 6 3 12 6 12 6 0 1 0 -10 0
-23z m355 14 c0 -5 -7 -10 -15 -10 -8 0 -15 5 -15 10 0 6 7 10 15 10 8 0 15
-4 15 -10z m-313 -37 c-3 -10 -5 -4 -5 12 0 17 2 24 5 18 2 -7 2 -21 0 -30z
m201 12 c-3 -3 -9 2 -12 12 -6 14 -5 15 5 6 7 -7 10 -15 7 -18z m37 7 c-3 -3
-11 0 -18 7 -9 10 -8 11 6 5 10 -3 15 -9 12 -12z m-315 -29 c0 -34 -1 -35 -14
-18 -10 15 -11 23 -2 37 15 25 16 23 16 -19z m116 9 c1 -7 0 -8 -3 -2 -2 5 -9
8 -14 4 -5 -3 -9 0 -9 6 0 15 23 7 26 -8z m124 8 c9 6 17 5 22 -3 11 -18 10
-49 -2 -42 -6 4 -8 10 -5 15 9 14 -16 23 -28 11 -16 -16 -23 -14 -23 8 0 13 4
17 11 11 6 -5 17 -5 25 0z m-6230 -4 c0 -3 -4 -8 -10 -11 -5 -3 -10 -1 -10 4
0 6 5 11 10 11 6 0 10 -2 10 -4z m6058 -34 c-14 -6 -14 -10 -4 -24 7 -10 16
-15 19 -11 4 3 7 1 7 -5 0 -19 -18 -14 -34 10 -17 24 -13 38 12 37 16 0 16 -1
0 -7z m47 -2 c3 -5 -1 -10 -10 -10 -9 0 -13 5 -10 10 3 6 8 10 10 10 2 0 7 -4
10 -10z m59 -23 c3 3 5 -5 4 -20 -1 -14 -4 -24 -7 -22 -2 3 -10 0 -18 -7 -17
-14 -27 -4 -19 19 6 14 9 15 15 4 5 -8 11 -9 15 -3 3 5 -1 15 -9 22 -12 10
-18 10 -29 1 -11 -9 -16 -9 -22 0 -4 7 -3 9 3 6 6 -4 17 0 24 9 12 14 14 14
24 0 7 -9 15 -13 19 -9z m-312 -1 c6 4 5 -2 -1 -15 -14 -25 -26 -28 -17 -5 4
12 2 15 -9 10 -8 -3 -15 -1 -15 3 0 13 24 20 28 9 2 -4 8 -5 14 -2z m8 -46
c-8 -5 -19 -10 -25 -10 -5 0 -3 5 5 10 8 5 20 10 25 10 6 0 3 -5 -5 -10z m187
-26 c-4 -4 -19 -7 -34 -8 -18 -1 -27 -6 -25 -14 1 -8 -2 -11 -7 -8 -10 7 -9
25 2 44 7 9 12 9 23 -3 20 -20 39 -9 23 13 -11 15 -10 14 6 0 10 -10 16 -21
12 -24z m-98 8 c7 -13 6 -19 -2 -19 -7 0 -13 9 -13 19 0 10 1 18 3 18 1 0 7
-8 12 -18z m-85 -7 c-4 -8 -11 -12 -16 -9 -6 4 -5 10 3 15 19 12 19 11 13 -6z
m41 5 c3 -5 -1 -10 -10 -10 -9 0 -13 5 -10 10 3 6 8 10 10 10 2 0 7 -4 10 -10z
m-2 -33 c3 -8 -1 -14 -8 -14 -7 0 -11 6 -8 14 3 7 6 13 8 13 2 0 5 -6 8 -13z
m-46 -32 c0 -8 -4 -12 -9 -9 -5 3 -6 10 -3 15 9 13 12 11 12 -6z m38 -35 c3
-6 -1 -7 -9 -4 -18 7 -21 14 -7 14 6 0 13 -4 16 -10z m-5670 -10 c-3 -5 -12
-10 -18 -10 -7 0 -6 4 3 10 19 12 23 12 15 0z m5665 -11 c13 -9 13 -10 0 -6
-8 2 -23 -8 -32 -22 -10 -14 -18 -20 -18 -13 0 7 -5 10 -12 6 -7 -4 -8 -3 -4
4 4 7 14 12 22 12 8 0 13 3 13 8 -4 24 7 28 31 11z m-60 -75 c0 -8 -5 -12 -10
-9 -6 4 -8 11 -5 16 9 14 15 11 15 -7z m31 -62 c-7 -2 -18 1 -23 6 -8 8 -4 9
13 5 13 -4 18 -8 10 -11z m39 -2 c0 -5 -2 -10 -4 -10 -3 0 -8 5 -11 10 -3 6
-1 10 4 10 6 0 11 -4 11 -10z m127 -42 c-6 -9 -13 -16 -16 -16 -4 1 -14 -2
-24 -7 -10 -4 -21 -5 -24 -1 -4 3 1 6 11 6 9 0 15 4 12 9 -3 5 4 11 15 14 14
4 20 11 16 20 -3 8 -3 18 1 22 12 11 19 -30 9 -47z m38 3 c3 -6 -4 -15 -15
-21 -19 -10 -20 -10 -8 9 15 24 15 24 23 12z m-5718 -33 c-3 -7 -5 -2 -5 12 0
14 2 19 5 13 2 -7 2 -19 0 -25z m4463 25 c0 -10 -40 -70 -40 -61 0 3 -3 13 -6
21 -3 8 2 22 11 31 17 17 35 21 35 9z m318 -38 c-3 -3 -9 2 -12 12 -6 14 -5
15 5 6 7 -7 10 -15 7 -18z m817 16 c3 -5 2 -12 -3 -15 -5 -3 -9 1 -9 9 0 17 3
19 12 6z m155 -6 c0 -1 -7 -8 -15 -15 -13 -11 -14 -10 -9 5 5 13 4 16 -4 11
-7 -4 -12 -13 -12 -20 0 -7 -7 -13 -15 -13 -20 0 -19 2 6 26 12 11 27 17 35
14 8 -3 14 -6 14 -8z m17 -7 c-3 -8 -6 -5 -6 6 -1 11 2 17 5 13 3 -3 4 -12 1
-19z m226 -19 c-8 -16 -19 -26 -24 -23 -6 4 -5 12 4 22 8 10 12 23 10 30 -3 7
1 10 10 6 13 -5 13 -9 0 -35z m-90 -8 c1 -13 6 -20 14 -17 7 3 13 -1 13 -9 0
-9 -10 -15 -24 -15 -19 0 -23 5 -21 25 2 14 -1 25 -6 25 -6 0 -9 -6 -8 -12 3
-26 -1 -39 -11 -33 -6 4 -7 11 -4 17 4 6 1 14 -6 18 -8 5 -3 10 14 14 17 4 24
11 20 19 -5 9 -4 9 5 1 7 -6 13 -21 14 -33z m-249 -17 c6 -15 4 -15 -11 -3
-10 7 -20 15 -22 16 -2 2 3 3 11 3 9 0 19 -7 22 -16z m200 -50 c3 -8 2 -12 -4
-9 -6 3 -10 10 -10 16 0 14 7 11 14 -7z m-5767 -20 c-3 -3 -12 -4 -19 -1 -8 3
-5 6 6 6 11 1 17 -2 13 -5z m4233 -44 c-14 -4 -32 -8 -40 -9 -13 -1 -13 0 0 9
8 5 26 9 40 9 l25 -1 -25 -8z m-2873 -42 c-3 -7 -5 -2 -5 12 0 14 2 19 5 13 2
-7 2 -19 0 -25z m4680 -14 c-3 -3 -12 -4 -19 -1 -8 3 -5 6 6 6 11 1 17 -2 13
-5z m178 -54 c218 -105 366 -319 382 -551 19 -277 -147 -552 -402 -665 -32
-14 -64 -23 -72 -20 -8 3 -12 2 -9 -3 7 -11 -41 -20 -79 -15 -25 4 -27 3 -10
-6 17 -8 17 -9 2 -7 -36 4 -17 22 40 34 243 56 460 299 489 549 5 42 4 55 -4
50 -9 -5 -12 8 -12 43 0 59 -21 163 -49 244 -11 32 -16 55 -11 52 6 -3 7 1 4
9 -3 9 -11 13 -17 9 -6 -3 -7 -1 -3 5 9 15 -23 64 -37 55 -6 -3 -7 -1 -3 5 22
36 -223 222 -315 238 -8 2 -26 8 -40 14 -19 8 -16 9 21 4 25 -3 81 -23 125
-44z m223 23 c2 -8 -5 -13 -17 -13 -21 0 -35 13 -24 24 10 10 36 3 41 -11z
m-651 -9 c-3 -3 -12 -4 -19 -1 -8 3 -5 6 6 6 11 1 17 -2 13 -5z m-4480 -56
c-3 -8 -6 -5 -6 6 -1 11 2 17 5 13 3 -3 4 -12 1 -19z m4308 -16 c-45 -38 -82
-59 -82 -47 0 8 5 13 11 12 6 -1 10 5 8 13 -2 8 0 12 3 8 4 -4 17 -1 29 7 22
16 47 21 31 7z m-154 -127 c-91 -100 -150 -240 -152 -361 -2 -146 40 -354 73
-354 5 0 7 -4 4 -8 -5 -9 11 -36 59 -96 38 -49 139 -126 204 -157 28 -13 51
-27 51 -31 0 -10 -87 31 -148 71 -69 44 -161 146 -202 223 -18 34 -46 102 -61
151 -27 88 -27 89 -14 190 16 115 40 194 85 273 37 64 128 166 141 158 5 -3
-13 -30 -40 -59z m927 16 c3 -8 -1 -12 -9 -9 -7 2 -15 10 -17 17 -3 8 1 12 9
9 7 -2 15 -10 17 -17z m-6228 -27 c0 -8 -5 -12 -10 -9 -6 4 -8 11 -5 16 9 14
15 11 15 -7z m5525 6 c3 -6 -1 -7 -9 -4 -10 4 -16 1 -16 -7 0 -7 -3 -10 -6 -6
-7 7 4 27 16 27 5 0 12 -4 15 -10z m-41 -26 c11 -28 7 -36 -14 -31 -13 3 -20
0 -20 -8 0 -7 -13 -19 -29 -26 -18 -8 -27 -18 -23 -27 4 -12 1 -12 -16 -3 -23
12 -30 31 -12 31 6 0 11 8 11 18 1 16 2 16 6 0 2 -10 10 -18 18 -18 8 0 11 7
8 20 -4 15 0 20 15 20 11 0 22 8 25 20 6 24 22 26 31 4z m1143 -86 c-3 -8 -6
-5 -6 6 -1 11 2 17 5 13 3 -3 4 -12 1 -19z m-147 -23 c0 -5 -5 -3 -10 5 -5 8
-10 20 -10 25 0 6 5 3 10 -5 5 -8 10 -19 10 -25z m-5470 -46 c0 -5 -4 -9 -10
-9 -5 0 -10 7 -10 16 0 8 5 12 10 9 6 -3 10 -10 10 -16z m4335 1 c3 -5 1 -10
-5 -10 -6 0 -8 -4 -5 -10 3 -5 2 -10 -4 -10 -5 0 -13 5 -16 10 -7 12 2 30 15
30 5 0 12 -4 15 -10z m1204 -170 c4 -31 11 -45 21 -45 25 0 52 -63 48 -112 -2
-24 1 -43 7 -44 5 0 0 -4 -13 -10 -15 -5 -21 -13 -16 -21 4 -7 3 -10 -1 -5 -5
4 -15 1 -24 -7 -20 -17 -61 -30 -61 -19 1 4 15 17 32 28 41 26 45 41 11 40
l-28 0 -5 120 c-4 66 -7 100 -9 75 -2 -38 -4 -41 -10 -20 -4 14 -4 36 1 50 5
14 7 45 4 70 l-6 45 21 -50 c12 -27 24 -70 28 -95z m-1221 113 c-2 -10 -10
-18 -18 -18 -8 0 -16 8 -18 18 -2 12 3 17 18 17 15 0 20 -5 18 -17z m1144
-184 c-2 -44 -5 -79 -6 -77 -2 1 -6 57 -8 123 -5 101 -4 113 6 77 6 -23 10
-79 8 -123z m-1159 131 c5 -21 -8 -26 -32 -11 -7 5 -10 14 -7 20 11 18 33 13
39 -9z m892 -10 c3 -5 1 -10 -4 -10 -6 0 -11 5 -11 10 0 6 2 10 4 10 3 0 8 -4
11 -10z m-902 -40 c4 -16 0 -20 -19 -20 -17 0 -24 6 -24 20 0 13 7 20 19 20
10 0 21 -9 24 -20z m2 -79 c3 -25 9 -67 13 -92 4 -25 6 -51 4 -58 -6 -19 -40
-12 -47 9 -7 22 -24 27 -26 8 -2 -28 -28 70 -28 110 -1 57 14 79 50 74 25 -4
29 -9 34 -51z m-97 -86 c0 -29 0 -29 -8 -5 -4 14 -8 50 -8 80 l1 55 7 -50 c5
-27 8 -63 8 -80z m1619 103 c-3 -8 -6 -5 -6 6 -1 11 2 17 5 13 3 -3 4 -12 1
-19z m-1740 -30 c-3 -8 -6 -5 -6 6 -1 11 2 17 5 13 3 -3 4 -12 1 -19z m272
-76 c1 -21 -1 -22 -14 -9 -10 11 -13 25 -8 49 7 32 7 32 14 8 4 -14 7 -35 8
-48z m1148 36 c-3 -7 -5 -2 -5 12 0 14 2 19 5 13 2 -7 2 -19 0 -25z m-6177
-15 c0 -19 -3 -24 -10 -17 -6 6 -8 18 -4 27 9 24 14 21 14 -10z m480 -120 c-1
-24 -2 -26 -11 -10 -5 9 -7 22 -4 27 10 17 15 11 15 -17z m4523 -5 c4 -13 1
-26 -6 -30 -8 -5 -4 -8 11 -8 14 0 22 -6 22 -16 0 -9 8 -23 18 -30 16 -12 16
-14 0 -30 -23 -24 -49 -4 -28 21 11 13 9 15 -11 13 -19 -3 -24 2 -25 22 -1 14
-6 35 -12 47 -16 29 -15 33 7 33 11 0 21 -9 24 -22z m-4493 -8 c0 -5 -5 -10
-11 -10 -5 0 -7 5 -4 10 3 6 8 10 11 10 2 0 4 -4 4 -10z m-59 -73 c-8 -8 -11
-7 -11 4 0 20 13 34 18 19 3 -7 -1 -17 -7 -23z m-260 -64 c7 -7 6 -14 -1 -18
-5 -3 -10 -20 -10 -38 0 -18 -4 -27 -9 -21 -5 5 -6 38 -3 74 4 36 8 54 10 40
2 -14 8 -30 13 -37z m259 37 c0 -5 -5 -10 -11 -10 -5 0 -7 5 -4 10 3 6 8 10
11 10 2 0 4 -4 4 -10z m-213 -32 c-3 -8 -6 -5 -6 6 -1 11 2 17 5 13 3 -3 4
-12 1 -19z m-19 -44 l-3 -39 -5 47 c-3 26 -1 43 3 39 5 -5 7 -26 5 -47z m4866
41 c3 -9 0 -15 -9 -15 -8 0 -15 7 -15 15 0 8 4 15 9 15 5 0 11 -7 15 -15z
m-4644 -5 c0 -5 -4 -10 -10 -10 -5 0 -10 5 -10 10 0 6 5 10 10 10 6 0 10 -4
10 -10z m4684 -34 c-3 -9 -13 -16 -22 -16 -13 0 -12 3 3 20 20 23 29 21 19 -4z
m-4887 -23 c-3 -10 -5 -4 -5 12 0 17 2 24 5 18 2 -7 2 -21 0 -30z m5901 -18
c-3 -3 -9 2 -12 12 -6 14 -5 15 5 6 7 -7 10 -15 7 -18z m-905 -5 c12 0 -23
-29 -35 -30 -5 0 -8 9 -8 21 0 15 4 19 16 15 9 -3 21 -6 27 -6z m18 -41 c-9
-22 -10 -22 -10 -3 -1 11 2 24 6 27 12 12 14 0 4 -24z m96 -31 c-3 -8 -6 -5
-6 6 -1 11 2 17 5 13 3 -3 4 -12 1 -19z m715 -80 c2 -65 -1 -100 -11 -115 -24
-40 -30 -25 -24 60 2 45 1 79 -3 75 -4 -4 -13 -3 -21 4 -11 8 -12 7 -7 -6 5
-12 2 -15 -10 -10 -9 4 -16 3 -15 -2 3 -18 -1 -25 -12 -18 -11 6 76 104 93
104 4 0 9 -42 10 -92z m275 40 c-3 -8 -6 -5 -6 6 -1 11 2 17 5 13 3 -3 4 -12
1 -19z m-1062 -69 c5 -5 -5 -4 -23 2 -17 6 -32 13 -32 16 0 7 43 -8 55 -18z
m685 -19 c0 -5 -2 -10 -4 -10 -3 0 -8 5 -11 10 -3 6 -1 10 4 10 6 0 11 -4 11
-10z m-32 -35 c-3 -3 -9 2 -12 12 -6 14 -5 15 5 6 7 -7 10 -15 7 -18z m-611
-1 c-3 -3 -12 -4 -19 -1 -8 3 -5 6 6 6 11 1 17 -2 13 -5z m-1489 -71 c-10 -2
-28 -2 -40 0 -13 2 -5 4 17 4 22 1 32 -1 23 -4z m384 -10 c-40 -2 -103 -2
-140 0 -37 2 -4 3 73 3 77 0 107 -2 67 -3z m401 -10 c-35 -2 -91 -2 -125 0
-35 2 -7 3 62 3 69 0 97 -1 63 -3z m380 -10 c-13 -2 -35 -2 -50 0 -16 2 -5 4
22 4 28 0 40 -2 28 -4z m-407 -555 c3 -35 1 -38 -24 -39 -24 -2 -25 -2 -4 -6
20 -4 22 -9 16 -36 -9 -45 -11 -47 -50 -47 -19 0 -34 -4 -34 -10 0 -5 9 -10
20 -10 11 0 20 -4 20 -10 0 -19 -55 -11 -68 10 -15 24 -58 26 -88 5 -24 -16
-34 -11 -34 18 0 16 -3 17 -15 7 -18 -15 -20 1 -3 18 10 10 10 15 0 21 -17 10
-17 21 -2 31 7 5 8 14 1 33 -21 54 -11 58 131 55 l130 -3 4 -37z m109 32 c4
-6 3 -45 -1 -87 -6 -70 -8 -74 -20 -52 -7 13 -13 31 -14 40 0 8 -9 33 -19 55
-11 21 -17 42 -14 46 7 12 61 10 68 -2z m-28 -172 c-3 -8 -6 -5 -6 6 -1 11 2
17 5 13 3 -3 4 -12 1 -19z m-360 -40 c-15 -9 -19 -4 -11 16 5 14 9 15 15 5 5
-8 3 -17 -4 -21z m-3387 -76 c0 -4 -7 -17 -14 -28 -16 -22 -18 -33 -18 -107 0
-36 -4 -47 -14 -43 -7 3 -16 0 -20 -6 -4 -6 -3 -9 2 -6 5 3 14 0 21 -7 23 -25
-11 -38 -77 -31 -48 6 -60 4 -60 -7 0 -7 6 -14 13 -15 6 -1 36 -6 66 -10 78
-10 77 -29 -1 -24 -35 2 -68 8 -74 13 -6 5 -19 10 -30 12 -40 6 -62 37 -26 37
15 1 15 2 -2 11 -10 6 -39 9 -64 6 -38 -4 -48 -1 -63 16 -13 17 -20 19 -31 10
-11 -10 -18 -8 -31 7 -20 24 -21 31 -4 24 8 -3 20 2 27 11 7 8 18 15 24 15 6
0 4 -4 -4 -10 -8 -5 -11 -12 -7 -17 10 -9 28 18 23 33 -7 18 53 47 85 40 16
-3 29 -1 29 4 0 8 91 39 130 45 16 2 42 11 75 25 26 11 45 12 45 2z m20 -117
c0 -8 -4 -15 -10 -15 -5 0 -10 7 -10 15 0 8 5 15 10 15 6 0 10 -7 10 -15z
m-582 -40 c-3 -3 -9 2 -12 12 -6 14 -5 15 5 6 7 -7 10 -15 7 -18z m582 -38 c0
-16 -4 -26 -10 -22 -5 3 -10 23 -10 43 0 28 3 33 10 22 5 -8 10 -28 10 -43z
m-740 18 c0 -8 0 -17 0 -20 0 -16 -14 -6 -16 13 -2 12 1 22 6 22 6 0 10 -7 10
-15z m-165 -5 c3 -5 1 -10 -4 -10 -6 0 -11 5 -11 10 0 6 2 10 4 10 3 0 8 -4
11 -10z m55 -10 c0 -11 -4 -20 -10 -20 -5 0 -9 -8 -7 -17 2 -20 -2 -23 -38
-23 -18 0 -23 4 -18 16 5 13 7 13 14 2 7 -10 11 -7 15 10 4 12 10 22 15 22 5
0 9 7 9 15 0 8 5 15 10 15 6 0 10 -9 10 -20z m-237 -41 c14 -8 17 -5 17 16 0
28 12 32 29 11 9 -11 8 -17 -4 -29 -8 -9 -15 -21 -15 -27 0 -7 -8 -10 -20 -7
-12 3 -35 1 -52 -4 -24 -7 -29 -6 -20 3 18 18 14 38 -10 59 -23 19 -23 19 17
3 22 -9 48 -20 58 -25z m317 31 c0 -5 -2 -10 -4 -10 -3 0 -8 5 -11 10 -3 6 -1
10 4 10 6 0 11 -4 11 -10z m-945 -9 c5 -9 50 -6 68 6 4 3 8 -21 7 -53 -2 -77
-1 -82 10 -64 8 13 10 12 10 -2 0 -10 -6 -18 -14 -18 -21 0 -39 27 -34 53 4
18 0 23 -16 23 -15 -1 -20 4 -18 17 2 12 -4 21 -17 24 -12 3 -21 9 -21 14 0
12 17 12 25 0z m265 -14 c0 -6 6 -3 13 7 9 13 20 16 40 11 15 -4 25 -11 22
-15 -3 -4 2 -13 10 -20 10 -9 15 -9 15 -1 0 6 12 11 26 11 22 0 25 2 14 15
-10 12 -9 15 8 15 11 0 22 -6 25 -13 7 -18 -8 -41 -21 -33 -6 4 -8 -2 -5 -14
4 -15 9 -18 18 -10 12 10 25 4 25 -12 0 -5 -5 -6 -10 -3 -6 4 -18 1 -26 -6
-12 -9 -20 -9 -39 1 -14 7 -25 18 -25 23 0 6 -11 -2 -25 -17 l-25 -27 -41 27
c-23 14 -39 21 -35 16 3 -5 -1 -18 -9 -28 -13 -16 -16 -17 -25 -4 -5 8 -10 23
-10 33 0 9 -5 17 -11 17 -6 0 -9 8 -7 18 5 28 98 37 98 9z m110 13 c0 -5 -2
-10 -4 -10 -3 0 -8 5 -11 10 -3 6 -1 10 4 10 6 0 11 -4 11 -10z m910 -11 c0
-5 -7 -9 -15 -9 -8 0 -15 7 -15 15 0 9 6 12 15 9 8 -4 15 -10 15 -15z m-325
-9 c-3 -5 -15 -10 -26 -10 -10 0 -19 5 -19 10 0 6 12 10 26 10 14 0 23 -4 19
-10z m-190 -10 c3 -5 1 -10 -4 -10 -6 0 -11 5 -11 10 0 6 2 10 4 10 3 0 8 -4
11 -10z m-665 -20 c0 -11 -4 -20 -9 -20 -5 0 -7 9 -4 20 3 11 7 20 9 20 2 0 4
-9 4 -20z m1330 0 c0 -5 -8 -10 -17 -10 -15 0 -16 2 -3 10 19 12 20 12 20 0z
m247 -32 c-3 -8 -6 -5 -6 6 -1 11 2 17 5 13 3 -3 4 -12 1 -19z m618 -49 c-22
-42 -31 -29 -15 22 10 31 16 37 22 25 6 -10 3 -27 -7 -47z m-2142 10 c-3 -10
-9 -19 -14 -19 -11 0 -12 44 -2 53 10 11 21 -13 16 -34z m382 14 c14 -15 25
-35 24 -43 0 -10 -3 -9 -9 5 -5 11 -9 16 -9 11 -1 -5 -9 -2 -18 5 -15 13 -16
11 -10 -10 5 -22 4 -23 -9 -9 -10 10 -13 24 -8 41 3 15 8 27 10 27 2 0 15 -12
29 -27z m1873 -15 c6 -15 7 -30 3 -33 -5 -2 -13 14 -19 36 -11 44 -4 42 16 -3z
m-1758 -35 c0 -26 -3 -34 -9 -24 -5 8 -7 20 -4 28 3 7 0 13 -7 13 -6 0 -8 5
-5 10 13 21 25 8 25 -27z m713 17 c3 -11 1 -18 -4 -14 -5 3 -9 12 -9 20 0 20
7 17 13 -6z m97 -16 c0 -8 -5 -12 -10 -9 -6 4 -8 11 -5 16 9 14 15 11 15 -7z
m-565 -14 c-3 -5 -12 -10 -18 -10 -7 0 -6 4 3 10 19 12 23 12 15 0z m1481 -47
c-11 -11 -19 6 -11 24 8 17 8 17 12 0 3 -10 2 -21 -1 -24z m-1824 -93 c7 0 7
-5 -1 -14 -6 -7 -9 -21 -5 -30 3 -9 1 -16 -5 -16 -6 0 -11 7 -11 15 0 8 -5 23
-11 33 -8 12 -7 25 2 47 l13 30 4 -32 c2 -18 8 -33 14 -33z m1864 2 c-12 -11
-18 7 -10 30 l8 23 4 -23 c2 -13 1 -26 -2 -30z m-518 -63 l5 -61 -34 7 c-19 4
-35 8 -37 10 -2 2 13 52 30 98 16 41 31 19 36 -54z m527 41 c3 -5 1 -10 -4
-10 -6 0 -11 5 -11 10 0 6 2 10 4 10 3 0 8 -4 11 -10z m-1815 -32 c-1 -31 -2
-32 -15 -14 -13 17 -15 17 -21 3 -8 -21 -25 -23 -19 -2 3 8 7 22 10 30 2 8 14
15 25 15 16 0 20 -6 20 -32z m37 17 c0 -8 -4 -15 -9 -15 -4 0 -8 7 -8 15 0 8
4 15 8 15 5 0 9 -7 9 -15z m1633 -15 c-18 -11 -22 -7 -14 14 5 13 10 14 18 6
8 -8 7 -13 -4 -20z m-745 10 c3 -6 -1 -7 -9 -4 -18 7 -21 14 -7 14 6 0 13 -4
16 -10z m-801 -16 c3 -8 2 -12 -4 -9 -6 3 -10 10 -10 16 0 14 7 11 14 -7z
m1706 -3 c0 -11 3 -26 6 -35 5 -13 -2 -16 -35 -16 -46 0 -54 19 -24 52 22 24
53 24 53 -1z m-720 -12 c0 -10 -78 -10 -85 1 -2 3 16 6 41 7 24 1 44 -2 44 -8z
m-70 -26 c0 -3 -7 -2 -16 1 -12 5 -14 1 -9 -17 5 -19 4 -20 -5 -4 -13 21 -5
38 15 30 8 -3 15 -7 15 -10z m-1272 -26 c25 -4 25 -4 -4 -6 -19 0 -34 -8 -38
-17 -8 -20 -5 -23 22 -29 12 -2 30 -8 39 -14 16 -9 15 -10 -7 -9 -14 1 -30 6
-37 11 -7 5 -18 5 -24 1 -9 -5 -7 -9 7 -14 13 -5 5 -8 -23 -8 -24 0 -45 3 -48
9 -4 5 -16 9 -28 9 -18 0 -19 2 -7 10 21 13 51 12 48 -1 -2 -6 2 -13 7 -15 7
-3 9 12 7 37 -4 38 -3 41 16 37 15 -4 22 0 27 16 6 18 8 18 12 4 2 -9 16 -19
31 -21z m190 15 c2 -7 -2 -10 -12 -6 -9 3 -16 11 -16 16 0 13 23 5 28 -10z
m-48 -10 c0 -5 -7 -9 -15 -9 -8 0 -15 4 -15 9 0 4 7 8 15 8 8 0 15 -4 15 -8z
m1155 -2 c3 -6 -1 -7 -9 -4 -18 7 -21 14 -7 14 6 0 13 -4 16 -10z m55 -22 c-1
-21 -2 -21 -11 -5 -6 9 -14 15 -20 12 -5 -4 -9 -1 -9 4 0 6 9 11 20 11 14 0
20 -7 20 -22z m-49 -15 c12 -16 12 -17 -2 -6 -9 7 -20 9 -24 5 -5 -4 -5 -1 -1
6 9 16 11 15 27 -5z m539 -23 c0 -5 -2 -10 -4 -10 -3 0 -8 5 -11 10 -3 6 -1
10 4 10 6 0 11 -4 11 -10z m-433 -22 c-3 -8 -6 -5 -6 6 -1 11 2 17 5 13 3 -3
4 -12 1 -19z m363 8 c0 -3 -4 -8 -10 -11 -5 -3 -10 -1 -10 4 0 6 5 11 10 11 6
0 10 -2 10 -4z m2017 -33 c0 -23 -8 -47 -20 -60 -18 -20 -18 -26 -6 -72 7 -27
17 -49 23 -48 21 4 18 -41 -3 -53 -18 -9 -21 -8 -21 10 0 11 -5 20 -11 20 -6
0 -9 7 -5 15 3 8 1 15 -4 15 -6 0 -10 6 -10 14 0 8 -16 15 -41 19 -47 6 -59
14 -39 27 12 8 12 10 -3 16 -14 5 -15 9 -6 20 15 18 27 18 44 0 12 -12 12 -15
0 -20 -35 -13 -4 -39 34 -29 18 5 19 7 5 20 -8 9 -13 21 -11 27 6 15 -13 41
-33 48 -11 3 -10 8 8 17 18 10 27 10 38 0 11 -9 14 -8 14 4 0 11 5 14 17 10
13 -5 15 -2 11 15 -4 14 -2 22 7 22 8 0 13 -13 12 -37z m-290 -5 c-3 -7 -5 -2
-5 12 0 14 2 19 5 13 2 -7 2 -19 0 -25z m347 2 c-25 -12 -42 -15 -49 -9 -14
14 11 27 53 27 l36 0 -40 -18z m-1977 -27 c1 -29 -1 -33 -9 -20 -7 14 -3 57 6
57 1 0 3 -17 3 -37z m-422 17 c-3 -5 -10 -10 -16 -10 -5 0 -9 5 -9 10 0 6 7
10 16 10 8 0 12 -4 9 -10z m485 -19 c0 -5 -9 -7 -20 -4 -11 3 -20 7 -20 9 0 2
9 4 20 4 11 0 20 -4 20 -9z m30 -1 c0 -5 -5 -10 -11 -10 -5 0 -7 5 -4 10 3 6
8 10 11 10 2 0 4 -4 4 -10z m-591 -54 c14 -17 2 -16 -39 2 l-25 11 26 0 c15 1
32 -5 38 -13z m2234 -13 c-7 -17 -20 -17 -26 1 -4 10 0 14 12 13 11 -1 17 -7
14 -14z m-1823 -3 c0 -5 -7 -10 -16 -10 -8 0 -12 5 -9 10 3 6 10 10 16 10 5 0
9 -4 9 -10z m70 -74 c7 -7 10 -3 10 10 1 18 1 18 11 1 13 -22 6 -32 -16 -23
-18 6 -35 48 -34 79 1 12 5 4 10 -18 5 -22 14 -44 19 -49z m-1970 70 c0 -3 -4
-8 -10 -11 -5 -3 -10 -1 -10 4 0 6 5 11 10 11 6 0 10 -2 10 -4z m3629 -29 c0
-21 -1 -21 -9 -2 -12 28 -12 37 0 30 6 -3 10 -16 9 -28z m-3958 -21 c-6 -7 -9
-15 -6 -17 2 -3 -15 -6 -38 -7 -38 -2 -40 -1 -24 12 10 8 27 12 37 9 14 -4 20
0 20 11 0 10 5 14 10 11 8 -5 8 -11 1 -19z m5069 14 c0 -5 -2 -10 -4 -10 -3 0
-8 5 -11 10 -3 6 -1 10 4 10 6 0 11 -4 11 -10z m-3212 -5 c-10 -10 -49 -14
-43 -4 4 5 16 9 27 9 12 0 19 -2 16 -5z m2311 -41 c25 -41 26 -51 7 -35 -11 9
-15 9 -19 -1 -3 -8 -9 -1 -16 15 -25 63 -5 78 28 21z m929 -24 l0 -25 -8 25
c-4 14 -8 34 -8 45 l-1 20 9 -20 c5 -11 8 -31 8 -45z m-5289 6 c-1 -16 -2 -17
-6 -3 -2 9 -9 17 -14 17 -5 0 -9 4 -9 10 0 5 7 7 15 4 8 -4 14 -16 14 -28z
m1996 16 c-3 -3 -11 0 -18 7 -9 10 -8 11 6 5 10 -3 15 -9 12 -12z m57 -2 c10
0 18 -4 18 -10 0 -5 -12 -10 -26 -10 -14 0 -23 4 -19 10 3 6 1 10 -4 10 -6 0
-11 5 -11 12 0 9 3 9 12 0 7 -7 20 -12 30 -12z m1700 -5 c3 -14 2 -25 -2 -25
-4 0 -10 11 -12 25 -3 14 -2 25 2 25 4 0 10 -11 12 -25z m-3652 0 c0 -8 -4
-15 -10 -15 -5 0 -7 7 -4 15 4 8 8 15 10 15 2 0 4 -7 4 -15z m2000 -1 c0 -8
-4 -12 -10 -9 -5 3 -10 10 -10 16 0 5 5 9 10 9 6 0 10 -7 10 -16z m2119 -39
c0 -56 -21 -125 -40 -125 -14 0 -5 96 17 168 9 31 22 7 23 -43z m48 23 c-3 -7
-5 -2 -5 12 0 14 2 19 5 13 2 -7 2 -19 0 -25z m945 7 c3 -14 1 -25 -3 -25 -5
0 -9 11 -9 25 0 14 2 25 4 25 2 0 6 -11 8 -25z m-1485 -7 c-3 -8 -6 -5 -6 6
-1 11 2 17 5 13 3 -3 4 -12 1 -19z m-3540 -4 c-3 -3 -12 -4 -19 -1 -8 3 -5 6
6 6 11 1 17 -2 13 -5z m1928 -19 c0 -22 -4 -25 -39 -25 -33 0 -37 -2 -26 -15
6 -8 15 -14 18 -13 44 5 52 -2 50 -48 -1 -25 -6 -48 -12 -50 -6 -2 -41 6 -78
19 l-68 23 30 26 c21 19 28 32 23 45 -3 10 -3 15 1 11 5 -4 13 -2 20 3 6 6 27
18 46 29 19 10 35 19 35 19 0 1 0 -10 0 -24z m-2014 6 c-17 -11 -6 -31 17 -31
15 -1 15 -2 -1 -11 -14 -8 -21 -7 -32 7 -16 22 -9 44 14 44 13 0 13 -2 2 -9z
m1906 -5 c0 -8 -6 -12 -15 -9 -11 5 -11 7 0 14 7 5 13 9 14 9 0 0 1 -6 1 -14z
m38 4 c-3 -5 -12 -10 -18 -10 -7 0 -6 4 3 10 19 12 23 12 15 0z m1680 -46 c3
-25 5 -47 3 -49 -11 -11 -28 16 -34 53 -5 34 -4 42 9 42 10 0 17 -15 22 -46z
m26 26 c1 8 5 -3 8 -25 4 -22 3 -44 -1 -49 -11 -14 -15 -6 -22 49 -4 34 -3 43
3 30 7 -15 10 -16 12 -5z m406 -60 c-3 -39 -1 -60 6 -60 6 0 8 -2 5 -5 -3 -4
-16 -3 -30 0 -20 5 -23 11 -20 41 2 19 8 34 13 34 5 0 9 11 9 25 0 14 5 25 11
25 8 0 10 -19 6 -60z m293 26 c0 -19 6 -36 13 -39 8 -3 7 -9 -5 -18 -17 -14
-15 -59 2 -59 4 0 13 -37 20 -82 6 -46 14 -93 17 -105 5 -21 2 -23 -38 -22
l-44 1 30 13 c17 8 24 14 17 15 -20 0 -43 27 -37 43 9 21 -13 105 -41 160 -26
53 -28 58 -16 56 22 -4 32 3 32 24 0 25 17 47 37 47 8 0 13 -13 13 -34z
m-2213 8 c-3 -3 -12 -4 -19 -1 -8 3 -5 6 6 6 11 1 17 -2 13 -5z m2273 -23 c0
-14 -12 -20 -26 -14 -22 8 -17 32 6 26 11 -3 20 -9 20 -12z m-4589 -28 c6 -6
-1 -9 -19 -9 -15 0 -34 5 -40 13 -10 10 -7 12 19 9 17 -2 35 -8 40 -13z m2039
2 c0 -2 -10 -9 -22 -15 -22 -11 -22 -10 -4 4 21 17 26 19 26 11z m317 -59 c8
-71 -28 -57 -41 16 -5 25 -3 38 6 41 21 7 30 -8 35 -57z m-2192 34 c-3 -5 -12
-10 -18 -10 -7 0 -6 4 3 10 19 12 23 12 15 0z m2265 6 c0 -2 -7 -7 -16 -10 -8
-3 -12 -2 -9 4 6 10 25 14 25 6z m2170 -23 c0 -20 -24 -11 -28 10 -2 12 1 15
12 11 9 -3 16 -13 16 -21z m830 2 c0 -8 -4 -15 -10 -15 -5 0 -10 7 -10 15 0 8
5 15 10 15 6 0 10 -7 10 -15z m-3383 -31 c18 7 43 -4 43 -19 0 -14 31 -25 71
-25 23 0 26 -3 21 -26 -4 -23 -8 -25 -41 -21 -146 21 -206 27 -222 22 -11 -4
-19 -2 -19 4 0 6 5 11 12 11 6 0 3 6 -8 14 -18 14 -18 16 -2 33 13 12 30 16
58 14 31 -2 42 2 47 15 6 16 8 15 16 -5 6 -12 16 -20 24 -17z m-2057 22 c0 -3
-4 -8 -10 -11 -5 -3 -10 -1 -10 4 0 6 5 11 10 11 6 0 10 -2 10 -4z m340 -15
c0 -3 -11 -7 -24 -7 -20 -2 -22 1 -13 11 11 12 37 10 37 -4z m2165 -45 c20
-18 20 -18 -14 -12 -19 3 -41 11 -48 18 -13 10 -12 14 3 25 13 10 19 10 28 0
6 -6 20 -20 31 -31z m-2214 9 c5 4 9 1 9 -5 0 -7 -7 -9 -16 -6 -9 3 -25 6 -37
6 -21 0 -21 1 3 13 20 11 26 11 28 0 2 -7 8 -11 13 -8z m-81 -5 c0 -5 -7 -7
-15 -4 -8 4 -15 8 -15 10 0 2 7 4 15 4 8 0 15 -4 15 -10z m558 -80 c-7 -11
-18 -18 -25 -16 -7 3 -10 -1 -7 -8 3 -8 -4 -16 -15 -19 -12 -3 -21 -1 -21 4 0
5 5 9 11 9 5 0 7 5 4 10 -3 6 2 13 12 16 10 3 25 9 33 14 21 12 22 12 8 -10z
m970 -9 c-13 -22 -38 -17 -37 8 0 10 2 11 6 4 5 -14 24 -18 22 -5 -3 16 1 23
11 17 6 -4 5 -13 -2 -24z m2685 13 c-3 -8 -11 -13 -18 -10 -7 2 -15 -4 -18
-15 -3 -13 -14 -19 -32 -19 -39 0 -26 20 25 41 25 10 46 18 47 18 1 1 0 -6 -4
-15z m992 -2 c-3 -3 -11 0 -18 7 -9 10 -8 11 6 5 10 -3 15 -9 12 -12z m-4900
-32 c3 -5 2 -10 -4 -10 -5 0 -13 5 -16 10 -3 6 -2 10 4 10 5 0 13 -4 16 -10z
m4425 -34 c0 -24 -14 -26 -40 -5 l-25 19 33 0 c21 0 32 -5 32 -14z m-4296 -25
c3 -5 -4 -11 -17 -15 -17 -5 -19 -8 -8 -15 18 -12 7 -29 -19 -27 -26 1 -28 13
-4 42 20 24 39 30 48 15z m353 -85 c-18 -26 -26 -32 -31 -21 -3 8 -1 15 5 15
6 0 8 4 4 10 -3 5 -13 7 -23 4 -9 -2 0 4 21 13 21 10 37 21 34 24 -2 4 0 3 5
-1 5 -4 -2 -23 -15 -44z m-270 28 c0 -17 -13 -19 -23 -3 -4 8 -9 7 -15 -2 -5
-8 -9 -9 -9 -3 0 15 6 19 28 21 10 1 19 -5 19 -13z m139 -1 c-10 -11 -36 -12
-36 -2 0 5 10 9 22 9 12 0 18 -3 14 -7z m-42 -28 c3 -8 1 -15 -4 -15 -6 0 -10
7 -10 15 0 8 2 15 4 15 2 0 6 -7 10 -15z m551 -66 c11 -16 1 -19 -13 -3 -7 8
-8 14 -3 14 5 0 13 -5 16 -11z m62 -15 c-3 -3 -12 -4 -19 -1 -8 3 -5 6 6 6 11
1 17 -2 13 -5z m49 -31 c-10 -10 -19 5 -10 18 6 11 8 11 12 0 2 -7 1 -15 -2
-18z m-1373 -772 c3 -14 0 -17 -14 -14 -20 5 -24 15 -12 26 11 12 21 8 26 -12z
m57 0 c7 -2 -23 -21 -32 -21 -5 0 -8 6 -8 14 0 8 8 13 18 11 9 -2 19 -4 22 -4z
m147 -7 c-3 -3 -12 -4 -19 -1 -8 3 -5 6 6 6 11 1 17 -2 13 -5z m-324 -41 c4
-3 0 -15 -9 -25 -13 -14 -20 -15 -31 -7 -21 18 -15 39 10 39 13 0 27 -3 30 -7z
m4256 -67 l23 -24 -24 -4 c-23 -4 -51 7 -75 29 -10 9 -7 13 14 16 16 2 31 5
34 6 3 0 16 -10 28 -23z m-524 -15 c3 -5 1 -12 -5 -16 -5 -3 -10 1 -10 9 0 18
6 21 15 7z m549 -29 c3 -5 -1 -9 -9 -9 -8 0 -12 4 -9 9 3 4 7 8 9 8 2 0 6 -4
9 -8z m-2014 -32 c0 -5 -4 -10 -10 -10 -5 0 -10 5 -10 10 0 6 5 10 10 10 6 0
10 -4 10 -10z m2140 -159 c0 -6 -4 -13 -10 -16 -5 -3 -10 1 -10 9 0 9 5 16 10
16 6 0 10 -4 10 -9z m115 -10 c11 -5 28 -4 38 1 13 6 19 5 23 -7 5 -13 16 -15
46 -11 24 3 37 2 33 -4 -3 -6 1 -10 10 -10 9 0 13 5 10 10 -3 6 -1 10 4 10 23
0 10 -26 -19 -38 -31 -14 -60 -9 -95 14 -11 8 -38 14 -62 14 -23 0 -44 4 -48
10 -3 5 -13 6 -22 3 -11 -4 -14 -3 -9 5 8 13 61 15 91 3z m352 -6 c0 -8 -4
-12 -9 -9 -5 3 -6 10 -3 15 9 13 12 11 12 -6z m425 7 c28 -5 35 -10 29 -21 -7
-11 -13 -10 -35 4 -15 10 -37 15 -51 13 -14 -3 -28 -1 -31 3 -6 10 35 11 88 1z
m825 2 c-3 -3 -12 -4 -19 -1 -8 3 -5 6 6 6 11 1 17 -2 13 -5z m793 2 c0 -9
-30 -14 -35 -6 -4 6 3 10 14 10 12 0 21 -2 21 -4z m70 -6 c0 -6 -11 -8 -27 -4
-40 10 -41 14 -5 14 18 0 32 -5 32 -10z m65 0 c3 -5 1 -10 -4 -10 -6 0 -11 5
-11 10 0 6 2 10 4 10 3 0 8 -4 11 -10z m350 1 c7 -12 -12 -24 -25 -16 -11 7
-4 25 10 25 5 0 11 -4 15 -9z m-2283 -23 c-6 -6 -15 -8 -19 -4 -4 4 -1 11 7
16 19 12 27 3 12 -12z m695 7 c0 -8 -4 -15 -8 -15 -11 0 -20 16 -12 24 11 11
20 7 20 -9z m1516 -3 c-6 -15 -5 -15 10 -3 15 12 17 11 17 -3 0 -9 -7 -16 -15
-16 -8 0 -15 -4 -15 -10 0 -5 -4 -10 -10 -10 -5 0 -7 7 -3 16 5 13 3 15 -13 7
-24 -13 -44 -6 -44 16 0 13 10 17 39 18 34 2 39 -1 34 -15z m-1880 1 c-7 -2
-19 -2 -25 0 -7 3 -2 5 12 5 14 0 19 -2 13 -5z m182 -13 c19 -8 19 -9 -2 -9
-12 -1 -29 -4 -37 -7 -12 -5 -15 -2 -10 10 7 18 19 19 49 6z m155 -10 c0 -5
-11 -10 -25 -10 -14 0 -25 5 -25 10 0 6 11 10 25 10 14 0 25 -4 25 -10z m50 0
c0 -5 -10 -10 -22 -9 -22 0 -22 1 -3 9 11 5 21 9 23 9 1 1 2 -3 2 -9z m-1105
-10 c3 -5 1 -10 -4 -10 -6 0 -11 5 -11 10 0 6 2 10 4 10 3 0 8 -4 11 -10z
m460 -10 c-28 -12 -37 -12 -30 0 3 6 16 10 28 9 21 0 21 -1 2 -9z m584 -9 c11
-7 11 -10 -2 -17 -11 -6 3 -9 40 -8 33 0 59 6 61 12 4 14 42 16 42 3 0 -5 -6
-12 -12 -15 -7 -3 -2 -3 11 0 15 4 21 2 17 -4 -4 -7 6 -10 29 -8 25 3 38 -1
45 -13 6 -9 10 -11 10 -3 0 14 40 17 40 3 0 -5 -10 -13 -22 -17 -13 -4 -27
-12 -31 -18 -6 -8 -10 -8 -14 2 -2 6 -9 12 -14 12 -6 0 -7 -4 -4 -10 3 -5 -1
-10 -10 -10 -10 0 -15 6 -12 13 3 8 -4 14 -16 15 -16 1 -18 -1 -8 -7 9 -6 1
-9 -24 -8 -21 1 -33 3 -26 5 25 8 -1 20 -36 16 -21 -2 -57 -6 -80 -9 -27 -3
-44 0 -47 8 -4 7 -4 2 -2 -9 3 -16 -1 -21 -13 -19 -9 2 -19 4 -22 4 -4 1 -6 9
-5 19 0 11 12 19 31 22 24 4 30 10 28 28 -3 23 19 30 46 13z m-265 -7 c9 -3
16 -12 16 -20 0 -7 6 -17 14 -21 15 -9 28 -73 14 -73 -4 0 -8 6 -8 13 -1 7 -6
5 -14 -5 -7 -10 -22 -18 -32 -18 -17 1 -17 3 5 20 14 13 18 20 10 21 -8 0 -5
4 6 9 17 7 16 9 -10 9 -35 1 -55 17 -55 42 0 24 25 34 54 23z m131 -4 c-3 -5
-1 -10 4 -10 6 0 11 -4 11 -10 0 -15 -26 -12 -39 4 -9 11 -9 15 1 19 21 9 30
8 23 -3z m1355 0 c0 -5 -4 -10 -10 -10 -5 0 -10 5 -10 10 0 6 5 10 10 10 6 0
10 -4 10 -10z m370 -1 c0 -11 -12 -12 -60 -10 -57 3 -53 16 6 17 29 1 54 -2
54 -7z m-1922 -35 c-10 -10 -28 6 -28 24 0 15 1 15 17 -1 9 -9 14 -19 11 -23z
m122 21 c0 -8 -2 -15 -4 -15 -2 0 -6 7 -10 15 -3 8 -1 15 4 15 6 0 10 -7 10
-15z m2042 3 c-9 -9 -15 -9 -24 0 -9 9 -7 12 12 12 19 0 21 -3 12 -12z m53 2
c8 -13 -5 -13 -25 0 -13 8 -13 10 2 10 9 0 20 -4 23 -10z m-2342 -53 c-4 -6
-10 -2 -14 9 -12 31 -9 40 6 20 8 -10 11 -24 8 -29z m300 29 c4 -9 0 -13 -11
-12 -9 2 -18 8 -20 14 -5 17 25 15 31 -2z m-236 -2 c-3 -3 -12 -4 -19 -1 -8 3
-5 6 6 6 11 1 17 -2 13 -5z m760 0 c-3 -3 -12 -4 -19 -1 -8 3 -5 6 6 6 11 1
17 -2 13 -5z m1373 -14 c0 -5 -7 -10 -15 -10 -8 0 -15 5 -15 10 0 6 7 10 15
10 8 0 15 -4 15 -10z m-1900 -32 c0 -5 5 -6 10 -3 6 3 10 2 10 -4 0 -5 8 -12
18 -14 11 -3 8 -5 -9 -6 -16 -1 -29 5 -33 14 -3 8 -11 14 -17 13 -6 -2 -13 2
-16 9 -3 7 3 9 16 6 12 -3 21 -10 21 -15z m907 -10 c-3 -7 -5 -2 -5 12 0 14 2
19 5 13 2 -7 2 -19 0 -25z m1107 17 c-22 -17 -34 -19 -34 -6 0 5 8 12 18 14
32 9 36 7 16 -8z m-101 -10 c-3 -9 -8 -14 -10 -11 -3 3 -2 9 2 15 9 16 15 13
8 -4z m162 -4 c-8 -13 -42 -14 -49 -2 -4 5 2 7 13 4 10 -3 22 0 26 7 4 6 9 9
12 6 3 -2 2 -9 -2 -15z m55 15 c0 -11 -19 -15 -25 -6 -3 5 1 10 9 10 9 0 16
-2 16 -4z m-324 -34 c-9 -2 -25 -1 -34 3 -15 6 -15 8 3 15 12 4 26 3 34 -4 12
-9 11 -12 -3 -14z m54 8 c0 -4 -7 -10 -15 -14 -8 -3 -15 -12 -15 -21 0 -8 -7
-15 -17 -15 -15 0 -15 1 0 18 10 10 17 26 17 35 0 10 5 14 15 11 8 -4 15 -10
15 -14z m313 13 c-7 -2 -19 -2 -25 0 -7 3 -2 5 12 5 14 0 19 -2 13 -5z m82
-13 c11 -17 -5 -32 -21 -19 -8 6 -14 15 -14 20 0 12 27 11 35 -1z m-6695 -10
c0 -5 -4 -10 -10 -10 -5 0 -10 5 -10 10 0 6 5 10 10 10 6 0 10 -4 10 -10z
m3770 0 c0 -5 -2 -10 -4 -10 -3 0 -8 5 -11 10 -3 6 -1 10 4 10 6 0 11 -4 11
-10z m784 -12 c-4 -6 0 -15 7 -20 10 -7 8 -8 -8 -5 -13 3 -23 1 -23 -4 0 -5 5
-9 11 -9 5 0 7 -4 4 -10 -11 -17 -24 -11 -31 15 -7 29 11 56 32 48 7 -3 11
-10 8 -15z m-484 -7 c0 -5 -13 -11 -30 -13 -20 -3 -30 0 -30 9 0 8 12 13 30
13 17 0 30 -4 30 -9z m100 -1 c0 -12 -77 -14 -84 -2 -2 4 15 9 40 10 24 1 44
-3 44 -8z m2054 -5 c3 -9 0 -15 -9 -15 -16 0 -27 14 -18 24 10 10 21 7 27 -9z
m-1939 -5 c3 -5 1 -10 -4 -10 -6 0 -11 5 -11 10 0 6 2 10 4 10 3 0 8 -4 11
-10z m175 -5 c-14 -17 -102 -20 -135 -4 -14 6 -3 8 35 4 30 -3 62 -1 70 5 8 5
21 10 29 10 11 0 11 -3 1 -15z m1940 -5 c0 -13 -11 -13 -30 0 -12 8 -11 10 8
10 12 0 22 -4 22 -10z m93 0 c-14 -6 -32 -6 -45 0 -19 7 -15 9 22 9 37 0 41
-2 23 -9z m-2613 -20 c0 -5 -2 -10 -4 -10 -3 0 -8 5 -11 10 -3 6 -1 10 4 10 6
0 11 -4 11 -10z m260 -37 c11 -4 8 -8 -10 -13 -30 -8 -50 -2 -50 15 0 13 22
12 60 -2z m2248 -4 c-18 -12 -61 -11 -53 0 3 5 19 9 36 9 20 -1 26 -4 17 -9z
m-2028 -20 c0 -5 -4 -9 -10 -9 -5 0 -10 7 -10 16 0 8 5 12 10 9 6 -3 10 -10
10 -16z m164 6 c13 -34 -18 -40 -97 -20 l-28 7 23 13 c30 15 96 16 102 0z
m-4499 -15 c3 -5 1 -10 -4 -10 -6 0 -11 5 -11 10 0 6 2 10 4 10 3 0 8 -4 11
-10z m3807 -32 c29 -41 14 -47 -22 -8 -35 37 -35 37 -14 37 8 0 24 -13 36 -29z
m2021 25 c-7 -2 -19 -2 -25 0 -7 3 -2 5 12 5 14 0 19 -2 13 -5z m561 -14 c18
3 29 0 23 -5 -3 -4 -26 -9 -49 -11 l-43 -5 24 21 c16 14 27 18 31 10 4 -6 10
-10 14 -10z m-6777 5 c-3 -3 -12 -4 -19 -1 -8 3 -5 6 6 6 11 1 17 -2 13 -5z
m5727 -9 c-4 -8 -11 -15 -16 -15 -6 0 -5 6 2 15 7 8 14 15 16 15 2 0 1 -7 -2
-15z m46 5 c12 -8 11 -10 -7 -10 -13 0 -23 5 -23 10 0 13 11 13 30 0z m-930
-26 c0 -2 -11 -4 -25 -4 -14 0 -25 4 -25 9 0 4 11 6 25 3 14 -2 25 -6 25 -8z
m1267 10 c-3 -3 -12 -4 -19 -1 -8 3 -5 6 6 6 11 1 17 -2 13 -5z m820 -10 c-3
-3 -12 -4 -19 -1 -8 3 -5 6 6 6 11 1 17 -2 13 -5z m-1162 -14 c3 -6 -1 -7 -9
-4 -18 7 -21 14 -7 14 6 0 13 -4 16 -10z"/>
<path d="M6160 6040 c0 -5 5 -10 10 -10 6 0 10 5 10 10 0 6 -4 10 -10 10 -5 0
-10 -4 -10 -10z"/>
<path d="M6163 6005 c0 -8 4 -12 9 -9 5 3 6 10 3 15 -9 13 -12 11 -12 -6z"/>
<path d="M6165 5951 c0 -34 11 -32 17 4 3 15 1 25 -6 25 -7 0 -12 -13 -11 -29z"/>
<path d="M6179 5113 c-13 -16 -12 -17 4 -4 9 7 17 15 17 17 0 8 -8 3 -21 -13z"/>
<path d="M7410 4631 c0 -11 4 -22 9 -25 4 -3 6 6 3 19 -5 30 -12 33 -12 6z"/>
<path d="M7391 4544 c0 -11 3 -14 6 -6 3 7 2 16 -1 19 -3 4 -6 -2 -5 -13z"/>
<path d="M6185 4400 c-3 -5 1 -10 9 -10 9 0 16 5 16 10 0 6 -4 10 -9 10 -6 0
-13 -4 -16 -10z"/>
<path d="M1767 2953 c-12 -12 -7 -33 8 -33 9 0 12 -6 9 -15 -4 -9 0 -15 10
-15 18 0 22 15 6 25 -5 3 -10 15 -10 26 0 19 -11 25 -23 12z"/>
<path d="M2010 2890 c-13 -8 -12 -10 3 -10 9 0 17 5 17 10 0 12 -1 12 -20 0z"/>
<path d="M1920 2880 c-22 -7 -21 -8 13 -9 23 -1 36 3 32 9 -7 11 -10 11 -45 0z"/>
<path d="M7834 7010 c-12 -4 -24 -16 -28 -26 -5 -14 -4 -15 8 -5 10 8 16 9 21
1 3 -5 19 -10 35 -10 26 0 28 2 21 23 -9 25 -26 30 -57 17z"/>
<path d="M6466 6953 c-6 -14 -5 -15 5 -6 7 7 10 15 7 18 -3 3 -9 -2 -12 -12z"/>
<path d="M7958 6713 c2 -21 9 -43 14 -50 5 -7 5 -12 -2 -15 -17 -5 -1 -238 17
-238 10 0 13 33 13 164 0 140 -2 165 -16 170 -27 10 -30 7 -26 -31z"/>
<path d="M6776 6052 c-3 -5 1 -9 9 -9 8 0 12 4 9 9 -3 4 -7 8 -9 8 -2 0 -6 -4
-9 -8z"/>
<path d="M6780 5990 c-9 -6 -10 -10 -3 -10 6 0 15 5 18 10 8 12 4 12 -15 0z"/>
<path d="M6675 5969 c-4 -6 -4 -13 -1 -16 3 -4 6 -1 6 6 0 7 5 9 10 6 8 -5 7
-12 -2 -23 -12 -15 -11 -16 5 -3 9 7 17 20 17 27 0 16 -26 19 -35 3z"/>
<path d="M6959 5978 c-5 -18 -6 -38 -1 -34 7 8 12 36 6 36 -2 0 -4 -1 -5 -2z"/>
<path d="M6724 5958 c3 -15 26 -23 26 -8 0 6 -4 9 -9 6 -5 -4 -12 -1 -14 4 -3
6 -4 5 -3 -2z"/>
<path d="M6997 5959 c13 -12 31 -15 30 -4 -1 5 -10 10 -20 10 -10 1 -14 -2
-10 -6z"/>
<path d="M6600 5955 c0 -7 30 -13 34 -7 3 4 -4 9 -15 9 -10 1 -19 0 -19 -2z"/>
<path d="M7040 5932 c0 -7 4 -12 10 -12 5 0 7 -6 4 -14 -5 -13 24 -31 34 -21
3 3 0 5 -7 5 -7 0 -10 4 -7 9 3 4 -3 16 -14 26 -12 10 -20 13 -20 7z"/>
<path d="M6492 5894 c9 -3 19 -15 22 -27 4 -18 4 -18 3 3 -1 17 -8 25 -22 27
-14 1 -15 0 -3 -3z"/>
<path d="M6591 5878 c5 -10 15 -18 22 -18 8 0 6 4 -3 10 -13 9 -13 11 0 20 12
7 10 9 -7 7 -17 -1 -20 -5 -12 -19z"/>
<path d="M6445 5876 c-11 -6 -23 -15 -26 -19 -3 -5 -9 -8 -13 -8 -19 3 -19 -1
-2 -14 11 -8 25 -15 30 -15 6 0 4 5 -4 11 -12 9 -12 10 3 5 10 -3 33 -6 50 -6
22 0 28 -3 18 -9 -7 -5 -21 -6 -31 -4 -10 3 -20 1 -23 -4 -3 -4 12 -8 33 -8
53 0 46 27 -11 41 l-44 12 30 7 c17 4 34 8 40 9 5 1 1 5 -10 8 -11 3 -29 0
-40 -6z"/>
<path d="M6548 5876 c-21 -15 -24 -40 -5 -33 6 2 12 8 12 13 0 5 4 15 8 22 10
15 7 15 -15 -2z"/>
<path d="M7094 5859 c-4 -7 -3 -9 4 -5 5 3 12 0 15 -6 2 -7 7 -10 11 -7 4 3 0
12 -8 18 -11 9 -16 9 -22 0z"/>
<path d="M6556 5823 c-6 -14 -5 -15 5 -6 7 7 10 15 7 18 -3 3 -9 -2 -12 -12z"/>
<path d="M6247 5796 c-4 -10 -1 -13 8 -9 8 3 12 9 9 14 -7 12 -11 11 -17 -5z"/>
<path d="M6324 5777 c3 -10 6 -45 6 -78 0 -33 4 -59 10 -59 6 0 10 20 10 45
l0 45 48 -45 c26 -25 50 -45 55 -45 14 0 8 121 -7 135 -12 12 -15 12 -20 -1
-3 -8 -2 -12 4 -9 6 4 10 -13 10 -42 l0 -47 -52 49 c-29 28 -56 55 -61 60 -5
6 -6 3 -3 -8z"/>
<path d="M6255 5770 c-3 -5 -1 -18 5 -27 9 -16 10 -15 5 5 -5 16 -2 22 10 22
10 0 13 -5 9 -12 -4 -7 -3 -8 4 -4 7 4 12 11 12 17 0 12 -37 12 -45 -1z"/>
<path d="M6510 5755 c0 -8 5 -15 10 -15 6 0 10 7 10 15 0 8 -4 15 -10 15 -5 0
-10 -7 -10 -15z"/>
<path d="M6590 5705 c0 -37 4 -65 10 -65 6 0 10 7 10 16 0 15 2 15 26 -1 16
-10 30 -13 36 -7 6 6 -1 15 -17 26 l-26 17 23 19 c30 24 17 36 -16 15 l-26
-17 0 31 c0 17 -4 31 -10 31 -6 0 -10 -28 -10 -65z"/>
<path d="M6732 5734 c-41 -28 -19 -94 32 -94 29 0 46 18 46 50 0 48 -40 71
-78 44z m56 -26 c14 -14 -2 -48 -22 -48 -20 0 -39 27 -32 45 6 18 37 20 54 3z"/>
<path d="M6860 5690 c0 -27 5 -50 10 -50 6 0 10 15 10 34 0 38 10 49 34 40 10
-4 16 -18 16 -40 0 -19 5 -34 10 -34 14 0 12 74 -2 88 -7 7 -27 12 -45 12 -33
0 -33 0 -33 -50z"/>
<path d="M6510 5685 c0 -25 5 -45 10 -45 6 0 10 20 10 45 0 25 -4 45 -10 45
-5 0 -10 -20 -10 -45z"/>
<path d="M6170 5706 c0 -8 4 -17 9 -20 5 -4 7 3 4 14 -6 23 -13 26 -13 6z"/>
<path d="M6310 5701 c0 -5 -8 -11 -17 -13 -16 -3 -15 -5 2 -9 16 -5 21 -1 22
12 1 11 0 19 -3 19 -2 0 -4 -4 -4 -9z"/>
<path d="M6386 5655 c-9 -26 -7 -32 5 -12 6 10 9 21 6 23 -2 3 -7 -2 -11 -11z"/>
<path d="M6125 5650 c-3 -5 -1 -10 4 -10 6 0 11 5 11 10 0 6 -2 10 -4 10 -3 0
-8 -4 -11 -10z"/>
<path d="M6249 5648 c10 -14 16 -15 31 -5 11 6 17 13 15 16 -3 2 -11 -1 -18
-7 -10 -9 -17 -8 -27 1 -12 10 -12 9 -1 -5z"/>
<path d="M6236 5627 c3 -10 9 -15 12 -12 3 3 0 11 -7 18 -10 9 -11 8 -5 -6z"/>
<path d="M6359 5606 c10 -11 8 -15 -6 -18 -13 -3 -11 -5 9 -10 23 -4 26 -3 18
12 -5 10 -6 20 -3 24 3 3 -2 6 -12 6 -14 0 -15 -3 -6 -14z"/>
<path d="M6419 5598 c-6 -22 -4 -35 6 -35 7 0 10 8 7 19 -4 16 -10 23 -13 16z"/>
<path d="M6543 5582 c-16 -10 -10 -45 8 -50 12 -3 12 -2 0 6 -10 7 -10 11 -1
14 7 2 11 11 9 21 -3 10 -9 14 -16 9z"/>
<path d="M6470 5569 c0 -5 -5 -7 -12 -3 -7 4 -8 3 -4 -4 4 -6 13 -9 21 -5 17
6 20 23 5 23 -5 0 -10 -5 -10 -11z"/>
<path d="M6760 5540 c0 -5 5 -10 11 -10 5 0 7 5 4 10 -3 6 -8 10 -11 10 -2 0
-4 -4 -4 -10z"/>
<path d="M6659 5504 c-20 -24 2 -36 22 -13 23 26 23 26 4 26 -8 0 -20 -6 -26
-13z"/>
<path d="M6712 5504 c-7 -8 -8 -14 -3 -14 10 0 25 19 20 25 -2 1 -10 -3 -17
-11z"/>
<path d="M6750 5491 c0 -11 3 -22 8 -24 4 -3 7 6 7 19 0 13 -3 24 -7 24 -5 0
-8 -9 -8 -19z"/>
<path d="M6780 5480 c0 -11 4 -20 8 -20 4 0 8 9 9 20 1 11 -2 20 -8 20 -5 0
-9 -9 -9 -20z"/>
<path d="M6850 5486 c7 -7 13 -7 20 0 6 6 3 10 -10 10 -13 0 -16 -4 -10 -10z"/>
<path d="M7476 5483 c-6 -15 -8 -15 -16 -3 -12 19 -16 13 -24 -31 -6 -37 -6
-37 28 -37 42 0 68 -13 57 -30 -4 -7 -34 -13 -73 -14 -36 -2 -64 -7 -61 -11 9
-14 174 -4 172 11 -3 21 3 32 19 33 12 0 10 3 -8 10 -14 6 -33 8 -42 5 -15 -3
-18 3 -18 40 0 46 -21 62 -34 27z"/>
<path d="M7245 5455 c-25 -12 -26 -14 -5 -9 14 4 29 10 35 15 12 12 5 11 -30
-6z"/>
<path d="M6970 5450 c-9 -6 -10 -10 -3 -10 6 0 15 5 18 10 8 12 4 12 -15 0z"/>
<path d="M7185 5450 c3 -5 8 -10 11 -10 2 0 4 5 4 10 0 6 -5 10 -11 10 -5 0
-7 -4 -4 -10z"/>
<path d="M7283 5384 c4 -7 -2 -14 -13 -17 -25 -7 -26 -27 -1 -27 23 0 36 29
20 44 -9 8 -10 8 -6 0z"/>
<path d="M7318 5343 c12 -2 30 -2 40 0 9 3 -1 5 -23 4 -22 0 -30 -2 -17 -4z"/>
<path d="M7765 5207 c-4 -10 -5 -21 -1 -24 10 -10 18 4 13 24 -4 17 -4 17 -12
0z"/>
<path d="M7390 5201 c0 -7 -4 -10 -8 -7 -4 2 -14 1 -20 -3 -8 -4 10 -9 39 -10
45 -1 50 0 39 14 -14 17 -25 20 -15 5 9 -14 -8 -13 -23 2 -9 9 -12 9 -12 -1z"/>
<path d="M7835 5190 c3 -5 11 -10 16 -10 6 0 7 5 4 10 -3 6 -11 10 -16 10 -6
0 -7 -4 -4 -10z"/>
<path d="M7919 5159 c-11 -7 -9 -9 7 -9 11 0 26 -6 33 -12 10 -11 11 -10 6 4
-8 21 -28 29 -46 17z"/>
<path d="M7760 5124 c0 -33 29 -80 46 -73 5 2 -3 27 -18 54 -27 49 -28 49 -28
19z"/>
<path d="M7907 5073 c3 -7 13 -13 23 -13 10 0 22 6 28 13 8 9 3 12 -23 12 -22
0 -31 -4 -28 -12z"/>
<path d="M1031 4664 c0 -11 3 -14 6 -6 3 7 2 16 -1 19 -3 4 -6 -2 -5 -13z"/>
<path d="M7847 4580 c-3 -11 -2 -22 2 -24 4 -3 8 6 9 20 2 29 -4 31 -11 4z"/>
<path d="M7842 4484 c-2 -19 -1 -34 2 -34 7 0 13 61 6 65 -3 2 -7 -12 -8 -31z"/>
<path d="M7842 4415 c0 -16 2 -22 5 -12 2 9 2 23 0 30 -3 6 -5 -1 -5 -18z"/>
<path d="M1200 4420 c0 -5 5 -10 10 -10 6 0 10 5 10 10 0 6 -4 10 -10 10 -5 0
-10 -4 -10 -10z"/>
<path d="M1240 4389 c0 -5 5 -7 10 -4 6 3 10 -3 10 -14 0 -12 5 -21 10 -21 11
0 13 11 4 34 -7 18 -34 22 -34 5z"/>
<path d="M7842 4270 c-4 -149 -7 -191 -17 -215 -7 -18 -5 -17 9 2 14 19 16 45
13 175 -2 148 -3 149 -5 38z"/>
<path d="M1300 4300 c0 -19 3 -21 12 -12 9 9 9 15 0 24 -9 9 -12 7 -12 -12z"/>
<path d="M6050 3290 c0 -11 -4 -20 -10 -20 -5 0 -10 -6 -10 -13 0 -18 72 -41
104 -33 l26 6 -21 40 c-15 29 -25 38 -33 31 -7 -6 -17 -6 -26 -1 -23 15 -30
12 -30 -10z"/>
<path d="M6620 3240 c-12 -7 -12 -11 1 -26 12 -16 12 -17 -3 -11 -12 4 -15 2
-11 -9 3 -9 20 -14 52 -13 42 1 44 1 17 9 -33 10 -50 31 -34 41 6 4 6 9 1 12
-5 3 -15 2 -23 -3z"/>
<path d="M6700 3223 c1 -20 19 -32 60 -37 83 -12 130 -14 130 -6 0 10 -52 20
-107 20 -30 0 -45 5 -49 15 -6 15 -34 21 -34 8z"/>
<path d="M6465 3190 c-4 -6 9 -10 31 -10 42 0 42 4 2 14 -15 3 -30 2 -33 -4z"/>
<path d="M5230 3180 c-5 -3 13 -11 40 -16 41 -9 56 -7 87 8 l38 18 -77 -2
c-43 -1 -82 -4 -88 -8z"/>
<path d="M6750 3170 c0 -5 5 -10 11 -10 5 0 7 5 4 10 -3 6 -8 10 -11 10 -2 0
-4 -4 -4 -10z"/>
<path d="M6713 3158 c3 -9 1 -19 -6 -21 -14 -5 9 -37 27 -37 6 -1 21 -9 34
-20 30 -25 28 -75 -3 -75 -11 0 -31 -11 -44 -24 -23 -23 -24 -24 -3 -19 15 4
22 2 22 -8 0 -8 -3 -13 -7 -13 -23 4 -43 -3 -43 -14 0 -8 17 -12 50 -12 33 0
55 -6 67 -17 15 -16 15 -17 -5 -11 -12 3 -22 1 -22 -5 0 -6 -29 -10 -69 -11
-53 0 -74 4 -93 19 -18 13 -39 18 -73 17 -41 -1 -54 -7 -83 -35 -18 -19 -30
-37 -25 -41 16 -14 84 -32 111 -31 64 5 133 -1 127 -9 -3 -5 -25 -7 -48 -5
-24 3 -54 1 -67 -4 -19 -7 -10 -11 54 -24 42 -8 79 -12 81 -8 6 9 87 -5 115
-20 12 -7 21 -7 25 0 8 13 45 13 45 0 0 -5 4 -10 10 -10 6 0 9 62 9 156 0 125
-3 160 -15 180 -15 22 -15 24 0 24 9 0 16 5 16 10 0 9 -15 14 -23 8 -2 -2 -12
4 -22 12 -17 13 -18 13 -13 -1 5 -13 -1 -18 -27 -21 -23 -3 -36 1 -40 10 -8
21 -7 22 16 22 30 0 14 17 -24 25 -17 4 -38 12 -46 19 -12 9 -14 8 -8 -6z m47
-28 c0 -5 -9 -10 -21 -10 -11 0 -17 5 -14 10 3 6 13 10 21 10 8 0 14 -4 14
-10z m109 -76 c3 -2 -1 -10 -7 -16 -14 -14 -43 -1 -50 22 -4 10 3 11 24 6 16
-4 31 -10 33 -12z m-44 -84 c-3 -5 -11 -10 -16 -10 -6 0 -7 5 -4 10 3 6 11 10
16 10 6 0 7 -4 4 -10z m-35 -20 c0 -5 -6 -10 -14 -10 -8 0 -18 5 -21 10 -3 6
3 10 14 10 12 0 21 -4 21 -10z m67 -56 c-3 -3 -12 -4 -19 -1 -8 3 -5 6 6 6 11
1 17 -2 13 -5z m26 -109 c1 -6 -16 -11 -38 -12 l-40 -2 30 14 c33 15 46 15 48
0z"/>
<path d="M6286 3128 c3 -18 7 -41 9 -50 2 -12 -2 -15 -14 -10 -14 5 -14 4 -2
-11 8 -10 11 -20 7 -24 -3 -3 -43 -9 -88 -11 -108 -7 -69 -20 65 -21 78 -1 97
2 97 13 0 8 5 18 12 22 8 5 9 0 5 -15 -5 -20 -2 -22 39 -20 43 3 45 4 39 28
-3 13 -15 36 -26 49 -10 14 -19 30 -19 37 0 7 -7 15 -15 19 -12 4 -14 0 -9
-18 5 -20 1 -25 -18 -29 -18 -3 -15 -5 10 -6 17 0 32 -5 32 -10 0 -15 -51 -23
-66 -10 -8 6 -14 8 -14 3 0 -5 -7 2 -16 15 -16 22 -16 24 0 33 16 9 16 11 -3
29 -28 26 -31 24 -25 -13z m144 -90 c0 -4 -9 -8 -21 -8 -11 0 -18 4 -15 8 3 5
12 9 21 9 8 0 15 -4 15 -9z"/>
<path d="M6476 3131 c-3 -5 4 -11 16 -14 29 -8 32 -4 8 11 -10 6 -21 8 -24 3z"/>
<path d="M6651 3124 c0 -11 3 -14 6 -6 3 7 2 16 -1 19 -3 4 -6 -2 -5 -13z"/>
<path d="M6340 3121 c0 -17 18 -21 24 -6 3 9 0 15 -9 15 -8 0 -15 -4 -15 -9z"/>
<path d="M6550 3091 c0 -5 5 -13 10 -16 6 -3 10 -2 10 4 0 5 -4 13 -10 16 -5
3 -10 2 -10 -4z"/>
<path d="M6684 3076 c-8 -21 -1 -49 13 -53 8 -3 12 7 11 31 -1 37 -14 48 -24
22z"/>
<path d="M6720 3076 c0 -2 9 -6 20 -9 11 -3 20 -1 20 4 0 5 -9 9 -20 9 -11 0
-20 -2 -20 -4z"/>
<path d="M6608 3063 c7 -3 16 -2 19 1 4 3 -2 6 -13 5 -11 0 -14 -3 -6 -6z"/>
<path d="M6505 3050 c-18 -7 -18 -9 -3 -15 23 -9 39 -3 30 11 -4 7 -15 8 -27
4z"/>
<path d="M6636 3051 c-4 -7 -5 -15 -2 -18 9 -9 19 4 14 18 -4 11 -6 11 -12 0z"/>
<path d="M5898 3038 c5 -5 16 -8 23 -6 8 3 3 7 -10 11 -17 4 -21 3 -13 -5z"/>
<path d="M6760 3030 c0 -5 5 -10 10 -10 6 0 10 5 10 10 0 6 -4 10 -10 10 -5 0
-10 -4 -10 -10z"/>
<path d="M2892 3011 c-14 -9 -5 -71 10 -71 6 0 8 10 5 22 -4 12 -2 27 4 34 12
15 -2 26 -19 15z"/>
<path d="M3044 3006 c-3 -9 -3 -28 1 -44 5 -15 7 -40 6 -56 -2 -20 1 -27 11
-24 8 3 14 22 15 49 1 24 3 53 5 64 4 24 -29 34 -38 11z"/>
<path d="M6540 3000 c0 -5 7 -10 16 -10 8 0 12 5 9 10 -3 6 -10 10 -16 10 -5
0 -9 -4 -9 -10z"/>
<path d="M6630 2996 c6 -6 18 -5 32 2 22 10 21 11 -9 9 -21 -1 -29 -5 -23 -11z"/>
<path d="M6504 2975 c-10 -8 -36 -15 -56 -15 -21 0 -38 -5 -38 -11 0 -5 -4 -8
-9 -4 -5 3 -12 1 -15 -4 -3 -5 -23 -7 -43 -5 -52 5 -153 -7 -153 -18 0 -5 30
-9 68 -8 115 3 129 1 112 -11 -12 -8 -9 -9 10 -4 14 4 36 6 49 6 14 -1 22 2
18 5 -12 12 23 35 43 29 11 -4 20 -2 20 4 0 6 7 11 15 11 8 0 15 -6 15 -12 0
-9 4 -8 10 2 6 10 13 11 18 5 4 -6 22 -8 42 -4 19 3 27 7 18 8 -9 0 -24 11
-32 23 -14 19 -20 18 -18 -3 1 -3 -12 -3 -29 -1 -16 2 -26 8 -23 13 8 13 1 11
-22 -6z"/>
<path d="M6688 2983 c6 -2 18 -2 25 0 6 3 1 5 -13 5 -14 0 -19 -2 -12 -5z"/>
<path d="M6206 2965 c-19 -14 -19 -15 7 -15 17 0 27 5 27 15 0 19 -9 19 -34 0z"/>
<path d="M5790 2938 c-18 -15 -20 -19 -6 -15 15 6 17 3 13 -13 -4 -17 0 -20
28 -20 21 0 35 6 39 16 8 22 8 24 -6 24 -6 0 -19 6 -27 14 -14 13 -19 12 -41
-6z"/>
<path d="M5698 2922 c-16 -2 -28 -8 -28 -13 0 -10 20 -10 65 0 25 6 26 8 10
12 -11 2 -32 3 -47 1z"/>
<path d="M2834 2898 c-19 -19 -20 -23 -6 -64 8 -24 17 -43 21 -42 22 2 31 -7
41 -42 6 -22 15 -40 21 -40 6 0 8 9 4 20 -6 18 -4 18 24 9 44 -16 61 -5 23 14
-18 9 -46 24 -63 33 -17 9 -33 24 -37 33 -3 9 -10 19 -15 22 -12 9 0 29 17 29
9 0 12 9 8 25 -5 29 -10 30 -38 3z"/>
<path d="M5433 2913 c-7 -2 -13 -8 -13 -13 0 -14 43 -20 99 -13 48 5 52 8 36
20 -18 12 -97 17 -122 6z"/>
<path d="M6654 2895 c11 -8 27 -15 35 -15 11 0 10 4 -5 15 -10 8 -26 14 -34
14 -11 0 -10 -3 4 -14z"/>
<path d="M3885 2870 c3 -5 13 -10 21 -10 8 0 14 5 14 10 0 6 -9 10 -21 10 -11
0 -17 -4 -14 -10z"/>
<path d="M6005 2830 c-3 -5 1 -10 10 -10 9 0 13 5 10 10 -3 6 -8 10 -10 10 -2
0 -7 -4 -10 -10z"/>
<path d="M5710 2794 c0 -8 5 -12 10 -9 6 4 8 11 5 16 -9 14 -15 11 -15 -7z"/>
<path d="M6258 2803 c7 -3 16 -2 19 1 4 3 -2 6 -13 5 -11 0 -14 -3 -6 -6z"/>
<path d="M5530 2787 c-18 -4 -30 -11 -26 -14 3 -3 -2 -12 -12 -19 -16 -12 -15
-13 5 -14 21 0 28 -11 37 -61 4 -23 2 -25 -27 -21 -30 5 -30 4 -14 -12 10 -10
37 -19 67 -21 27 -2 54 -6 60 -10 5 -3 10 0 10 7 0 9 3 9 10 -2 8 -12 10 -12
10 -1 0 11 3 11 15 1 20 -17 98 -23 88 -7 -3 7 -3 9 1 5 5 -4 19 -3 33 3 13 5
22 5 19 0 -3 -5 1 -14 8 -20 10 -8 16 -9 21 -1 12 20 69 11 115 -18 2 -2 -2
-7 -10 -12 -13 -8 -12 -10 3 -10 9 0 17 7 17 16 0 10 5 14 15 10 9 -3 18 1 21
9 4 8 14 15 23 15 9 0 24 7 34 14 18 14 18 14 0 18 -10 3 6 8 35 12 33 5 52
13 52 21 0 8 5 17 12 21 8 5 9 2 5 -9 -5 -13 -2 -15 17 -7 13 5 27 6 30 3 3
-4 6 1 6 10 0 11 -5 14 -15 11 -8 -4 -22 -1 -30 6 -10 8 -15 9 -15 2 0 -7 -21
-10 -52 -10 -29 1 -44 4 -33 8 30 10 -3 19 -61 15 -27 -2 -55 2 -63 8 -19 16
-44 18 -53 4 -6 -9 -8 -9 -8 1 0 7 -5 10 -10 7 -6 -3 -14 4 -19 17 -6 14 -10
17 -10 7 -1 -13 -9 -15 -48 -8 -77 13 -88 12 -73 -6 7 -9 10 -18 8 -21 -3 -3
-16 9 -29 27 -13 18 -18 29 -11 25 7 -4 12 -3 12 1 0 11 -129 11 -170 0z m267
-67 c1 -11 -2 -20 -8 -20 -10 0 -12 23 -2 33 9 9 9 10 10 -13z m-77 -6 c0 -2
-7 -4 -15 -4 -8 0 -15 4 -15 10 0 5 7 7 15 4 8 -4 15 -8 15 -10z m-130 -4 c0
-5 -5 -10 -11 -10 -5 0 -7 5 -4 10 3 6 8 10 11 10 2 0 4 -4 4 -10z m167 4 c-3
-3 -12 -4 -19 -1 -8 3 -5 6 6 6 11 1 17 -2 13 -5z m228 -94 c3 -5 1 -10 -4
-10 -6 0 -11 5 -11 10 0 6 2 10 4 10 3 0 8 -4 11 -10z"/>
<path d="M4766 2765 c-18 -14 -14 -15 45 -15 48 1 60 3 46 11 -9 5 -22 7 -29
3 -7 -4 -8 -3 -4 4 11 17 -35 14 -58 -3z"/>
<path d="M5950 2760 c0 -5 5 -10 11 -10 5 0 7 5 4 10 -3 6 -8 10 -11 10 -2 0
-4 -4 -4 -10z"/>
<path d="M6238 2763 c7 -3 16 -2 19 1 4 3 -2 6 -13 5 -11 0 -14 -3 -6 -6z"/>
<path d="M3053 2713 c-15 -5 -18 -63 -4 -63 5 0 11 15 14 33 5 37 6 36 -10 30z"/>
<path d="M295 2670 c-20 -22 -26 -20 65 -25 34 -2 54 13 39 31 -18 21 -83 17
-104 -6z"/>
<path d="M2910 2681 c0 -5 5 -13 10 -16 6 -3 10 -2 10 4 0 5 -4 13 -10 16 -5
3 -10 2 -10 -4z"/>
<path d="M143 2672 c-29 -3 -73 -44 -73 -67 0 -4 32 -4 70 -1 82 8 117 30 89
56 -16 16 -34 18 -86 12z"/>
<path d="M2056 2663 c-6 -14 -5 -15 5 -6 7 7 10 15 7 18 -3 3 -9 -2 -12 -12z"/>
<path d="M5448 2653 c14 -5 17 -24 3 -20 -5 1 -9 -2 -10 -8 -1 -9 7 -10 39 -6
16 2 -13 41 -30 40 -10 0 -11 -2 -2 -6z"/>
<path d="M2098 2613 c-10 -2 -18 -8 -18 -13 0 -4 9 -6 20 -3 11 3 20 9 20 14
0 5 -1 8 -2 8 -2 -1 -11 -3 -20 -6z"/>
<path d="M2045 2600 c3 -5 8 -10 11 -10 2 0 4 5 4 10 0 6 -5 10 -11 10 -5 0
-7 -4 -4 -10z"/>
<path d="M5775 2600 c3 -5 10 -10 16 -10 5 0 9 5 9 10 0 6 -7 10 -16 10 -8 0
-12 -4 -9 -10z"/>
<path d="M2020 2579 c0 -5 -4 -8 -9 -4 -5 3 -12 1 -16 -5 -7 -11 5 -13 29 -4
18 7 22 24 6 24 -5 0 -10 -5 -10 -11z"/>
<path d="M553 2562 l-23 -17 31 -2 c24 -2 29 0 20 11 -6 7 -8 16 -4 19 12 13
-2 6 -24 -11z"/>
<path d="M6413 2555 c-3 -9 -3 -38 1 -65 5 -34 1 -68 -10 -106 -10 -36 -14
-71 -10 -96 6 -35 2 -46 -30 -90 -34 -46 -36 -51 -20 -66 8 -9 35 -23 58 -32
48 -17 62 -48 52 -117 -6 -39 -8 -42 -45 -48 -22 -4 -45 -3 -52 3 -7 5 -43 12
-82 15 -65 5 -190 25 -390 62 -94 18 -118 19 -110 5 3 -5 19 -10 34 -10 16 0
34 -7 41 -14 17 -21 68 -36 141 -41 155 -10 313 -25 376 -35 124 -20 134 -20
145 9 7 18 6 52 -1 106 -16 118 -15 120 42 91 31 -17 34 -8 10 37 -9 18 -18
39 -19 47 -2 8 -7 44 -12 80 -12 80 -20 100 -36 94 -17 -6 -32 14 -41 53 -6
29 -4 34 19 42 21 9 46 38 46 55 0 32 -95 50 -107 21z m80 -280 c17 -36 6 -50
-13 -15 -6 11 -8 20 -4 20 3 0 1 7 -6 15 -7 8 -8 15 -3 15 5 0 17 -16 26 -35z
m18 -86 l-9 -34 -1 31 c-1 17 2 34 6 37 12 13 14 -1 4 -34z"/>
<path d="M605 2550 c-3 -5 -1 -10 4 -10 6 0 11 5 11 10 0 6 -2 10 -4 10 -3 0
-8 -4 -11 -10z"/>
<path d="M587 2516 c-4 -10 -1 -13 8 -9 8 3 12 9 9 14 -7 12 -11 11 -17 -5z"/>
<path d="M598 2483 c6 -2 18 -2 25 0 6 3 1 5 -13 5 -14 0 -19 -2 -12 -5z"/>
<path d="M4241 2449 c-17 -16 -19 -24 -11 -34 6 -8 18 -11 26 -8 8 3 14 -1 15
-8 0 -8 4 -5 8 6 10 25 2 42 -11 24 -7 -10 -8 -6 -5 14 2 15 3 27 2 27 0 0
-11 -9 -24 -21z"/>
<path d="M4680 2405 c0 -14 4 -25 9 -25 5 0 8 11 7 25 -1 33 -16 33 -16 0z"/>
<path d="M4340 2381 c0 -13 61 -73 68 -67 3 3 -7 17 -21 30 -15 14 -27 30 -27
36 0 5 -4 10 -10 10 -5 0 -10 -4 -10 -9z"/>
<path d="M357 2340 c-36 -23 -22 -32 37 -24 44 6 60 24 36 39 -5 3 -10 1 -10
-5 0 -7 -6 -8 -17 -2 -13 7 -27 4 -46 -8z"/>
<path d="M57 2276 c-7 -19 4 -27 21 -17 10 6 10 10 -1 20 -12 9 -16 8 -20 -3z"/>
<path d="M556 2275 c-3 -8 -1 -15 4 -15 6 0 10 7 10 15 0 8 -2 15 -4 15 -2 0
-6 -7 -10 -15z"/>
<path d="M430 2270 c-8 -5 -10 -10 -5 -10 6 0 17 5 25 10 8 5 11 10 5 10 -5 0
-17 -5 -25 -10z"/>
<path d="M4741 2213 c-2 -18 29 -145 40 -165 8 -15 6 -18 -11 -18 -11 0 -20
-4 -20 -10 0 -14 13 -13 35 3 17 13 17 18 -13 108 -16 52 -31 89 -31 82z"/>
<path d="M387 2196 c-4 -10 -1 -13 9 -9 7 3 14 9 14 14 0 14 -17 10 -23 -5z"/>
<path d="M3112 2140 c-16 -26 -15 -30 3 -30 9 0 15 9 15 25 0 30 -2 31 -18 5z"/>
<path d="M4235 2149 c-4 -6 -5 -12 -2 -15 2 -3 7 2 10 11 7 17 1 20 -8 4z"/>
<path d="M3156 2118 c-9 -37 -7 -45 13 -51 25 -6 34 2 19 20 -6 7 -8 16 -4 20
3 3 6 1 6 -5 0 -7 4 -12 9 -12 5 0 8 11 7 25 -1 33 -41 35 -50 3z"/>
<path d="M4214 2106 c-6 -6 -11 -18 -12 -26 0 -8 -5 -28 -10 -45 -8 -25 -11
-27 -17 -12 -6 14 -20 17 -79 17 -49 0 -66 -3 -56 -10 8 -5 41 -10 73 -10 31
0 57 -4 57 -9 0 -5 7 -11 15 -15 8 -3 14 -2 13 2 -1 4 6 31 16 60 19 55 19 68
0 48z"/>
<path d="M3050 1954 c0 -14 4 -23 9 -20 5 3 7 15 4 26 -7 28 -13 25 -13 -6z"/>
<path d="M130 1903 c0 -19 21 -27 31 -12 13 21 11 25 -11 25 -11 0 -20 -6 -20
-13z"/>
<path d="M190 1891 c0 -6 7 -11 16 -11 8 0 12 -5 9 -10 -3 -6 1 -13 9 -16 9
-3 16 -10 16 -16 0 -5 -4 -6 -10 -3 -5 3 -7 0 -5 -7 7 -18 53 -38 71 -31 24 9
16 24 -10 17 -18 -4 -25 -1 -29 15 -3 12 -1 21 4 21 20 0 7 16 -23 30 -18 7
-36 15 -40 18 -5 2 -8 -1 -8 -7z"/>
<path d="M3097 1859 c4 -13 9 -17 15 -11 11 11 3 32 -12 32 -4 0 -6 -9 -3 -21z"/>
<path d="M45 1861 c-3 -5 -1 -12 5 -16 5 -3 10 1 10 9 0 18 -6 21 -15 7z"/>
<path d="M0 1839 c0 -11 4 -17 10 -14 5 3 10 13 10 21 0 8 -4 14 -10 14 -5 0
-10 -9 -10 -21z"/>
<path d="M75 1846 c-11 -7 -24 -14 -30 -14 -18 -1 -17 -32 1 -32 10 0 14 3 11
7 -4 3 8 17 25 30 34 24 27 33 -7 9z"/>
<path d="M152 1820 c0 -14 2 -19 5 -12 2 6 2 18 0 25 -3 6 -5 1 -5 -13z"/>
<path d="M66 1803 c-9 -22 10 -41 26 -25 9 9 9 12 0 12 -6 0 -9 7 -6 15 4 8 2
15 -4 15 -5 0 -13 -8 -16 -17z"/>
<path d="M7 1784 c-7 -8 3 -34 13 -34 4 0 10 9 13 20 5 19 -12 28 -26 14z"/>
<path d="M246 1765 c-3 -8 -1 -15 5 -15 6 0 17 7 25 15 14 13 13 15 -4 15 -11
0 -22 -7 -26 -15z"/>
<path d="M430 1751 c0 -5 5 -13 10 -16 6 -3 10 -2 10 4 0 5 -4 13 -10 16 -5 3
-10 2 -10 -4z"/>
<path d="M3078 1743 c7 -3 16 -2 19 1 4 3 -2 6 -13 5 -11 0 -14 -3 -6 -6z"/>
<path d="M250 1730 c0 -5 5 -10 11 -10 5 0 7 5 4 10 -3 6 -8 10 -11 10 -2 0
-4 -4 -4 -10z"/>
<path d="M1825 1690 c3 -5 8 -10 11 -10 2 0 4 5 4 10 0 6 -5 10 -11 10 -5 0
-7 -4 -4 -10z"/>
<path d="M445 1680 c3 -5 8 -10 11 -10 2 0 4 5 4 10 0 6 -5 10 -11 10 -5 0 -7
-4 -4 -10z"/>
<path d="M1776 1676 c3 -9 11 -16 16 -16 13 0 5 23 -10 28 -7 2 -10 -2 -6 -12z"/>
<path d="M840 1630 c0 -5 5 -10 10 -10 6 0 10 5 10 10 0 6 -4 10 -10 10 -5 0
-10 -4 -10 -10z"/>
<path d="M690 1620 c0 -5 5 -10 11 -10 5 0 7 5 4 10 -3 6 -8 10 -11 10 -2 0
-4 -4 -4 -10z"/>
<path d="M1147 1613 c-4 -3 -7 -11 -7 -17 0 -6 5 -5 12 2 6 6 9 14 7 17 -3 3
-9 2 -12 -2z"/>
<path d="M1675 1610 c-4 -6 3 -10 14 -10 25 0 27 6 6 13 -8 4 -17 2 -20 -3z"/>
<path d="M5005 1600 c-3 -5 -18 -10 -33 -11 l-27 -1 28 -10 c33 -12 57 -5 57
17 0 17 -16 20 -25 5z"/>
<path d="M5086 1595 c-8 -22 -3 -28 19 -23 14 3 14 5 2 22 -13 18 -14 18 -21
1z"/>
<path d="M530 1578 c0 -7 5 -20 10 -28 9 -13 10 -13 10 0 0 13 1 13 11 0 9
-13 10 -13 6 0 -2 8 -10 14 -17 12 -11 -3 -11 0 0 12 10 13 10 16 -4 16 -9 0
-16 -6 -16 -12z"/>
<path d="M1618 1563 c-10 -2 -18 -9 -18 -14 0 -12 3 -12 36 6 28 14 19 18 -18
8z"/>
<path d="M910 1550 c0 -5 5 -10 11 -10 5 0 7 5 4 10 -3 6 -8 10 -11 10 -2 0
-4 -4 -4 -10z"/>
<path d="M885 1530 c-3 -5 1 -10 10 -10 9 0 13 5 10 10 -3 6 -8 10 -10 10 -2
0 -7 -4 -10 -10z"/>
<path d="M1255 1520 c-4 -6 -11 -8 -16 -5 -5 4 -9 1 -9 -5 0 -7 7 -9 16 -6 9
3 20 6 25 6 5 0 9 5 9 10 0 13 -17 13 -25 0z"/>
<path d="M1687 1499 c7 -7 15 -10 18 -7 3 3 -2 9 -12 12 -14 6 -15 5 -6 -5z"/>
<path d="M1252 1488 c-14 -14 -16 -28 -3 -28 9 0 24 30 18 36 -2 2 -9 -2 -15
-8z"/>
<path d="M1685 1460 c-3 -6 1 -7 9 -4 18 7 21 14 7 14 -6 0 -13 -4 -16 -10z"/>
<path d="M1530 1415 c-8 -9 -8 -15 -2 -15 12 0 26 19 19 26 -2 2 -10 -2 -17
-11z"/>
<path d="M1574 1402 c4 -3 14 -7 22 -8 9 -1 13 0 10 4 -4 3 -14 7 -22 8 -9 1
-13 0 -10 -4z"/>
<path d="M1525 1378 c-11 -6 -21 -12 -23 -13 -1 -1 2 -15 8 -31 9 -23 9 -27
-1 -16 -18 17 -26 15 -32 -9 -4 -16 -12 -20 -30 -17 -13 3 -33 -1 -43 -9 -16
-11 -16 -13 -1 -13 11 0 14 -5 10 -16 -5 -12 -7 -13 -14 -2 -6 10 -11 10 -20
1 -6 -6 -18 -9 -26 -6 -11 4 -13 0 -8 -19 5 -19 1 -27 -20 -38 -23 -12 -28
-12 -36 0 -6 11 -8 6 -7 -17 1 -18 5 -33 8 -33 3 0 5 -14 6 -31 1 -22 -3 -29
-12 -25 -8 4 -21 9 -29 12 -11 5 -13 2 -9 -10 5 -12 2 -15 -12 -9 -13 5 -15 3
-8 -8 4 -8 10 -23 12 -34 2 -11 5 -26 6 -34 3 -17 41 -22 74 -10 21 8 22 7 11
-12 -9 -17 -8 -20 3 -17 7 3 13 10 13 15 0 6 3 15 8 19 4 4 7 -2 7 -14 0 -12
3 -23 8 -23 31 -6 52 -5 52 1 0 13 49 -2 55 -17 4 -13 -2 -15 -35 -10 -30 4
-40 2 -40 -9 0 -8 -5 -14 -11 -14 -6 0 -9 6 -6 14 3 8 0 17 -8 20 -9 3 -12 0
-8 -9 3 -8 -2 -18 -11 -21 -9 -3 -16 -12 -16 -20 0 -17 12 -18 28 -2 9 9 12 9
12 -1 0 -8 6 -11 16 -7 9 4 22 2 28 -3 7 -6 61 -13 121 -16 61 -4 126 -8 145
-10 23 -2 39 3 47 14 11 15 12 15 13 -1 0 -21 20 -24 20 -4 0 8 -9 18 -20 21
-23 7 -27 25 -5 25 18 0 19 11 3 29 -11 11 -10 13 4 8 22 -8 33 9 12 17 -24 9
-46 7 -39 -4 3 -5 2 -10 -3 -10 -6 0 -13 11 -16 25 -4 14 -11 25 -16 25 -18 0
-10 20 10 28 19 7 19 8 -5 34 -28 31 -32 48 -10 48 9 0 12 6 8 16 -5 14 -3 14
15 3 12 -7 25 -9 29 -5 4 5 2 11 -4 13 -7 3 -14 14 -14 26 -1 17 -2 18 -6 5
-6 -22 -17 -23 -37 -2 -9 8 -16 12 -17 7 -1 -13 -18 30 -18 48 -1 9 6 20 15
23 12 4 15 2 10 -9 -3 -9 0 -15 9 -15 9 0 12 6 9 15 -4 9 0 15 7 15 9 0 8 4
-4 11 -10 6 -26 8 -35 4 -18 -7 -28 -4 -25 7 1 3 -4 9 -12 12 -9 3 -12 0 -8
-10 7 -19 -47 -19 -73 1 -18 14 -17 14 11 9 23 -4 33 -1 43 15 7 13 8 21 2 21
-5 0 -10 -4 -10 -9 0 -12 -32 -23 -41 -14 -4 4 -9 22 -11 38 -2 24 1 30 16 30
11 0 21 6 24 13 5 15 -16 15 -43 0z m95 -174 c0 -2 -12 -4 -26 -4 -14 0 -23 4
-20 9 6 8 46 4 46 -5z m-256 -40 c5 -14 4 -15 -9 -4 -17 14 -19 20 -6 20 5 0
12 -7 15 -16z m50 -18 c19 -6 19 -7 -3 -22 -12 -9 -33 -14 -47 -11 -17 3 -24
0 -24 -12 0 -14 -2 -14 -10 -1 -8 12 -10 12 -10 -5 -1 -17 -3 -17 -11 4 -8 19
-6 27 6 34 8 4 12 14 8 20 -3 7 2 5 13 -4 28 -24 56 -21 48 5 -3 12 -2 16 3
10 4 -6 17 -14 27 -18z m66 16 c0 -4 -9 -13 -20 -20 -18 -11 -20 -10 -20 8 0
13 7 20 20 20 11 0 20 -3 20 -8z m150 -8 c0 -9 8 -23 18 -30 16 -13 16 -13 0
-14 -10 0 -18 -6 -18 -14 0 -21 -20 -30 -33 -17 -7 7 -8 11 0 11 5 0 10 13 9
29 -1 16 -4 27 -8 24 -5 -2 -8 0 -8 6 0 9 15 18 33 20 4 1 7 -6 7 -15z m-47
-39 c-5 -16 -33 -15 -33 1 0 7 9 12 19 11 10 0 17 -6 14 -12z m-73 -35 c0 -5
-2 -10 -4 -10 -3 0 -8 5 -11 10 -3 6 -1 10 4 10 6 0 11 -4 11 -10z m-177 -43
l52 6 -18 -21 c-15 -16 -24 -19 -42 -12 -16 6 -25 5 -28 -3 -5 -15 -38 2 -45
23 -3 7 0 10 7 6 6 -4 11 -1 12 6 0 9 2 10 5 1 4 -8 21 -10 57 -6z m67 -27
c-8 -5 -17 -7 -19 -4 -3 3 1 9 9 14 8 5 17 7 19 4 3 -3 -1 -9 -9 -14z m106
-95 c-15 -15 -26 -21 -27 -13 0 7 -4 5 -7 -4 -7 -17 -8 -16 -20 2 -11 18 -10
20 13 20 14 0 25 4 25 9 0 9 31 20 39 15 2 -2 -9 -15 -23 -29z m54 31 c0 -3
-4 -8 -10 -11 -5 -3 -10 -1 -10 4 0 6 5 11 10 11 6 0 10 -2 10 -4z m153 -37
c5 -3 2 -9 -5 -12 -9 -3 -14 3 -15 15 -1 11 1 16 5 12 4 -5 11 -12 15 -15z
m-178 -9 c3 -5 1 -10 -4 -10 -6 0 -11 5 -11 10 0 6 2 10 4 10 3 0 8 -4 11 -10z
m70 0 c3 -6 -1 -7 -9 -4 -18 7 -21 14 -7 14 6 0 13 -4 16 -10z m62 4 c-3 -3
-12 -4 -19 -1 -8 3 -5 6 6 6 11 1 17 -2 13 -5z"/>
<path d="M1230 1329 c0 -5 5 -7 10 -4 6 3 10 8 10 11 0 2 -4 4 -10 4 -5 0 -10
-5 -10 -11z"/>
<path d="M1345 1330 c3 -5 8 -10 11 -10 2 0 4 5 4 10 0 6 -5 10 -11 10 -5 0
-7 -4 -4 -10z"/>
<path d="M1035 1290 c-3 -5 -1 -10 4 -10 6 0 11 5 11 10 0 6 -2 10 -4 10 -3 0
-8 -4 -11 -10z"/>
<path d="M1341 1286 c-11 -13 -11 -17 3 -22 21 -8 25 -4 17 19 -6 17 -8 17
-20 3z"/>
<path d="M1070 1279 c0 -5 5 -7 10 -4 6 3 10 8 10 11 0 2 -4 4 -10 4 -5 0 -10
-5 -10 -11z"/>
<path d="M7495 1260 c-3 -5 3 -10 14 -10 12 0 21 5 21 10 0 6 -6 10 -14 10 -8
0 -18 -4 -21 -10z"/>
<path d="M260 1240 c0 -5 5 -10 10 -10 6 0 10 5 10 10 0 6 -4 10 -10 10 -5 0
-10 -4 -10 -10z"/>
<path d="M1718 1243 c7 -3 16 -2 19 1 4 3 -2 6 -13 5 -11 0 -14 -3 -6 -6z"/>
<path d="M1216 1205 c-7 -19 3 -19 28 0 19 15 19 15 -1 15 -11 0 -23 -7 -27
-15z"/>
<path d="M1253 1140 c1 -11 7 -20 14 -20 15 0 15 2 7 24 -9 23 -23 20 -21 -4z"/>
<path d="M1800 1130 c0 -5 5 -10 11 -10 5 0 7 5 4 10 -3 6 -8 10 -11 10 -2 0
-4 -4 -4 -10z"/>
<path d="M1135 1111 c-3 -6 3 -9 12 -9 10 0 23 0 28 -2 6 -1 21 -1 35 0 l25 2
-25 8 c-35 11 -68 12 -75 1z"/>
<path d="M1867 1103 c-4 -3 -7 -11 -7 -17 0 -6 5 -5 12 2 6 6 9 14 7 17 -3 3
-9 2 -12 -2z"/>
<path d="M1100 1046 c0 -9 5 -16 10 -16 6 0 10 4 10 9 0 6 -4 13 -10 16 -5 3
-10 -1 -10 -9z"/>
<path d="M1766 1045 c-3 -8 -1 -15 3 -15 5 0 11 7 15 15 3 8 1 15 -3 15 -5 0
-11 -7 -15 -15z"/>
<path d="M428 1013 c7 -3 16 -2 19 1 4 3 -2 6 -13 5 -11 0 -14 -3 -6 -6z"/>
<path d="M1720 1010 c0 -5 7 -10 15 -10 8 0 15 5 15 10 0 6 -7 10 -15 10 -8 0
-15 -4 -15 -10z"/>
<path d="M1805 960 c3 -5 8 -10 11 -10 2 0 4 5 4 10 0 6 -5 10 -11 10 -5 0 -7
-4 -4 -10z"/>
<path d="M1847 906 c-3 -9 -14 -12 -25 -9 -11 3 -22 -1 -25 -10 -4 -10 1 -14
16 -12 12 1 31 3 42 5 11 1 15 4 8 6 -7 3 -9 12 -6 20 3 8 3 14 0 14 -3 0 -7
-6 -10 -14z"/>
<path d="M1321 894 c0 -11 3 -14 6 -6 3 7 2 16 -1 19 -3 4 -6 -2 -5 -13z"/>
<path d="M5225 714 c-22 -2 -189 -8 -372 -15 -267 -10 -330 -15 -326 -26 3 -7
-2 -13 -11 -13 -10 0 -16 -9 -16 -24 0 -13 -4 -26 -9 -28 -5 -1 -3 -12 5 -22
13 -19 14 -18 20 12 4 18 11 32 16 32 5 0 6 -4 3 -10 -3 -5 -3 -10 2 -11 4 0
16 -2 26 -4 11 -2 17 3 17 16 0 10 -5 18 -11 17 -6 -2 -14 4 -17 12 -2 8 -1
12 3 8 4 -4 14 -1 22 7 17 17 213 22 213 5 0 -5 -28 -18 -62 -28 -57 -18 -59
-20 -30 -24 18 -2 47 3 69 13 21 9 41 15 46 12 4 -2 6 1 5 9 -2 10 34 13 180
15 173 2 182 1 182 -17 0 -17 3 -18 25 -8 19 8 22 14 13 20 -7 4 48 7 122 6
l136 -2 -1 -25 c0 -24 4 -26 45 -27 83 -3 90 -4 90 -15 0 -6 -9 -9 -20 -6 -12
3 -18 1 -14 -5 5 -7 -2 -9 -18 -5 -17 5 -30 2 -37 -7 -7 -8 -24 -17 -38 -21
-41 -10 -14 -26 55 -32 66 -6 136 3 127 17 -3 4 -14 6 -25 3 -11 -3 -20 0 -20
6 0 14 14 14 63 0 43 -12 77 -4 77 17 0 19 29 18 36 -1 4 -8 14 -15 23 -15 14
0 14 -2 1 -10 -13 -8 -13 -10 2 -10 28 0 29 16 3 28 -26 12 -36 38 -12 29 8
-3 20 -1 28 4 11 7 11 9 -3 9 -9 0 -19 4 -22 9 -4 5 2 8 11 6 10 -2 24 -4 31
-4 7 -1 10 -6 6 -13 -5 -7 -2 -9 9 -5 21 8 31 -20 10 -31 -13 -8 -12 -10 5
-14 29 -8 47 6 28 22 -21 17 -10 33 14 20 13 -7 20 -6 23 3 3 9 7 9 19 0 11
-10 22 -10 45 -1 17 6 38 8 49 3 17 -7 17 -8 -5 -14 -25 -7 -42 -31 -21 -31 6
0 9 -4 6 -9 -7 -11 405 -17 859 -12 198 2 410 4 470 5 82 1 109 4 107 14 -3
16 6 15 24 -3 11 -11 36 -15 87 -15 63 1 70 2 54 14 -16 13 -16 15 -2 30 18
18 45 21 45 6 0 -5 -8 -10 -17 -11 -14 0 -13 -3 5 -11 12 -6 22 -15 22 -19 0
-4 68 -8 150 -8 l150 0 0 51 0 52 -29 -28 -29 -28 -18 31 c-10 17 -24 31 -31
31 -7 0 -13 8 -13 18 0 14 2 15 10 2 8 -12 10 -11 10 5 0 19 -6 21 -92 20
-102 0 -140 6 -146 23 -2 8 -320 11 -1200 10 -658 -1 -1215 -3 -1237 -4z m409
-40 c9 -3 16 -15 16 -25 0 -18 -1 -19 -25 -3 -32 21 -25 41 9 28z m1214 -5
c181 -1 202 -3 167 -13 -82 -26 -440 -29 -545 -6 l-65 15 105 5 c58 3 111 5
118 3 8 -2 107 -3 220 -4z m-919 -3 c-10 -11 -69 -16 -69 -6 0 5 17 10 37 10
20 0 34 -2 32 -4z m-82 -22 c2 -6 -15 -10 -44 -10 -33 1 -53 -4 -65 -16 -18
-18 -68 -25 -68 -10 0 15 24 32 46 32 13 0 25 3 27 8 8 11 100 8 104 -4z m43
-14 c0 -5 -2 -10 -4 -10 -3 0 -8 5 -11 10 -3 6 -1 10 4 10 6 0 11 -4 11 -10z
m182 -10 c18 -11 29 -20 23 -20 -5 0 -23 9 -40 20 -39 26 -25 26 17 0z m-302
-20 c0 -5 -5 -10 -11 -10 -5 0 -7 5 -4 10 3 6 8 10 11 10 2 0 4 -4 4 -10z
m1724 -5 c-4 -8 -10 -12 -15 -9 -11 6 -2 24 11 24 5 0 7 -7 4 -15z m-1757 -22
c3 -8 -5 -11 -24 -9 -36 5 -35 4 -28 17 9 13 47 8 52 -8z m1523 -3 c0 -5 -7
-10 -15 -10 -8 0 -15 5 -15 10 0 6 7 10 15 10 8 0 15 -4 15 -10z m-1662 -7
c-10 -2 -28 -2 -40 0 -13 2 -5 4 17 4 22 1 32 -1 23 -4z"/>
<path d="M4864 646 c-4 -10 -2 -28 5 -42 15 -33 14 -34 -9 -34 -11 0 -20 -6
-20 -14 0 -8 -5 -16 -12 -18 -6 -2 24 -5 66 -6 76 -3 77 -3 66 18 -8 16 -8 25
0 35 9 11 7 12 -12 9 -19 -4 -18 -2 7 12 17 10 36 17 43 16 6 -2 12 1 12 6 0
5 -17 12 -37 15 -21 4 -53 9 -70 13 -25 5 -34 3 -39 -10z m50 -82 c3 -8 2 -12
-4 -9 -6 3 -10 10 -10 16 0 14 7 11 14 -7z"/>
<path d="M5020 636 c0 -2 18 -6 39 -8 22 -2 37 0 35 4 -5 8 -74 11 -74 4z"/>
<path d="M5150 620 c0 -16 -7 -20 -34 -20 -19 0 -37 4 -40 8 -3 5 -15 8 -28 6
-13 -1 -33 -3 -44 -3 -29 -1 -41 -45 -19 -68 21 -20 30 -11 15 16 -13 26 6 29
36 6 15 -11 16 -15 4 -16 -34 -3 50 -17 113 -18 51 -1 68 2 65 12 -3 6 -14 13
-26 15 -26 4 -27 8 -5 30 9 10 32 17 54 17 22 0 35 3 30 8 -5 5 -28 8 -50 5
-23 -2 -41 -1 -41 3 0 4 -7 9 -15 13 -10 4 -15 -1 -15 -14z m-80 -35 c0 -16
-9 -19 -34 -9 -25 9 -19 24 9 24 16 0 25 -6 25 -15z"/>
<path d="M4594 610 c0 -13 4 -16 10 -10 7 7 7 13 0 20 -6 6 -10 3 -10 -10z"/>
<path d="M4787 613 c7 -3 9 -11 6 -20 -5 -13 -3 -13 15 -4 34 18 33 28 -1 28
-18 0 -27 -2 -20 -4z"/>
<path d="M4624 593 c2 -10 12 -19 24 -21 16 -3 19 1 15 17 -7 26 -42 29 -39 4z"/>
<path d="M4735 602 c-17 -12 -11 -36 12 -55 25 -20 43 -15 43 11 -1 16 -2 16
-13 1 -10 -13 -15 -14 -24 -3 -10 10 -10 14 0 17 9 4 9 6 0 6 -7 1 -10 8 -7
16 7 17 4 18 -11 7z"/>
<path d="M5330 590 c0 -6 -11 -16 -25 -22 -14 -6 -25 -17 -25 -25 0 -10 18
-13 73 -13 51 1 67 3 56 10 -9 5 -36 8 -58 6 -29 -3 -41 -1 -38 7 2 7 13 10
23 9 10 -2 16 -1 12 4 -4 4 -3 13 3 21 9 10 8 13 -5 13 -9 0 -16 -5 -16 -10z"/>
<path d="M5262 583 c-6 -2 -10 -9 -7 -13 7 -11 35 -2 35 11 0 10 -8 10 -28 2z"/>
<path d="M5388 583 c7 -3 16 -2 19 1 4 3 -2 6 -13 5 -11 0 -14 -3 -6 -6z"/>
<path d="M4555 571 c-3 -5 -1 -12 5 -16 5 -3 10 1 10 9 0 18 -6 21 -15 7z"/>
<path d="M4608 533 c12 -2 30 -2 40 0 9 3 -1 5 -23 4 -22 0 -30 -2 -17 -4z"/>
</g>
</svg>
